<svg width="1768" height="128" viewBox="0 0 1768 128" fill="none" xmlns="http://www.w3.org/2000/svg">
<path d="M0 29.1289C0 33.5472 3.58172 37.1289 8 37.1289C12.4183 37.1289 16 33.5472 16 29.1289C16 24.7106 12.4183 21.1289 8 21.1289C3.58172 21.1289 0 24.7106 0 29.1289ZM132.584 41.0416L132.957 39.5888L132.584 41.0416ZM345.959 96.6341L346.022 95.1355L345.959 96.6341ZM498.5 22L497.158 21.3292L498.5 22ZM437 37.9997L438.428 38.4602L437 37.9997ZM601.32 82.7359L601.148 81.2458L601.32 82.7359ZM769.955 41.0416L770.205 39.5624L769.955 41.0416ZM1098.5 126.5V128H1098.55L1098.59 127.997L1098.5 126.5ZM1528.5 29.1289V30.6289V29.1289ZM1768 114.999L1758.18 100.732L1750.73 116.37L1768 114.999ZM1322.5 82.7359L1323.17 84.0792L1322.5 82.7359ZM8.16131 30.6202C10.3004 30.3888 12.8943 30.1782 15.8997 30.0107L15.7328 27.0153C12.6859 27.1852 10.039 27.3996 7.83869 27.6376L8.16131 30.6202ZM31.5183 29.622C36.2949 29.6283 41.5338 29.7367 47.1637 29.9815L47.2941 26.9843C41.6221 26.7377 36.341 26.6283 31.5222 26.622L31.5183 29.622ZM62.7866 30.96C67.7855 31.3671 72.9934 31.8803 78.3739 32.5171L78.7265 29.5378C73.3085 28.8967 68.0642 28.3799 63.0301 27.9699L62.7866 30.96ZM93.8797 34.6399C98.9193 35.4244 104.068 36.3192 109.301 37.3366L109.873 34.3917C104.602 33.3669 99.4165 32.4656 94.3411 31.6756L93.8797 34.6399ZM124.605 40.6223C127.128 41.2163 129.664 41.8399 132.21 42.4943L132.957 39.5888C130.391 38.9291 127.835 38.3007 125.293 37.7021L124.605 40.6223ZM132.21 42.4943C134.725 43.1407 137.261 43.8101 139.816 44.4999L140.598 41.6036C138.032 40.9108 135.484 40.2384 132.957 39.5888L132.21 42.4943ZM154.981 48.7559C159.968 50.203 165.01 51.7074 170.093 53.2529L170.965 50.3826C165.873 48.8342 160.819 47.3261 155.817 45.8748L154.981 48.7559ZM185.165 57.9071C190.161 59.4694 195.182 61.0549 200.215 62.6489L201.121 59.7888C196.086 58.1945 191.061 56.6077 186.06 55.0439L185.165 57.9071ZM215.262 67.4159C220.288 69.0054 225.314 70.5884 230.327 72.1499L231.219 69.2857C226.212 67.7259 221.19 66.1444 216.167 64.5556L215.262 67.4159ZM245.428 76.7901C250.512 78.3265 255.568 79.825 260.585 81.2696L261.415 78.3867C256.413 76.9464 251.369 75.4517 246.296 73.9184L245.428 76.7901ZM275.816 85.5102C280.988 86.8958 286.102 88.204 291.141 89.4164L291.842 86.4996C286.832 85.294 281.743 83.9922 276.592 82.6124L275.816 85.5102ZM306.608 92.8684C311.918 93.9518 317.121 94.8984 322.197 95.6838L322.656 92.7191C317.633 91.942 312.477 91.0041 307.207 89.9289L306.608 92.8684ZM337.974 97.6167C340.662 97.8493 343.304 98.0228 345.895 98.1328L346.022 95.1355C343.478 95.0275 340.88 94.857 338.233 94.6279L337.974 97.6167ZM345.895 98.1328C348.497 98.2431 351.138 98.3566 353.811 98.4684L353.936 95.471C351.265 95.3592 348.626 95.2459 346.022 95.1355L345.895 98.1328ZM369.688 99.0675C374.91 99.2337 380.219 99.3634 385.583 99.4263L385.618 96.4265C380.279 96.3639 374.991 96.2348 369.783 96.069L369.688 99.0675ZM401.494 99.3905C406.783 99.2963 412.098 99.1112 417.411 98.8074L417.24 95.8123C411.971 96.1136 406.695 96.2974 401.44 96.391L401.494 99.3905ZM433.301 97.514C438.608 96.9426 443.887 96.2233 449.11 95.3276L448.603 92.3708C443.448 93.2548 438.231 93.9659 432.98 94.5312L433.301 97.514ZM464.747 92.0417C469.952 90.729 475.071 89.2007 480.072 87.4259L479.068 84.5987C474.164 86.3393 469.136 87.841 464.013 89.1328L464.747 92.0417ZM494.859 81.2489C499.675 78.9027 504.336 76.2687 508.812 73.3144L507.159 70.8106C502.799 73.6889 498.251 76.2592 493.545 78.552L494.859 81.2489ZM521.559 63.5373C523.55 61.7664 525.489 59.9116 527.372 57.9691L525.218 55.8812C523.387 57.7697 521.502 59.5732 519.565 61.2954L521.559 63.5373ZM527.372 57.9691C529.013 56.2755 530.53 54.5988 531.927 52.9418L529.633 51.0081C528.283 52.6097 526.813 54.2351 525.218 55.8812L527.372 57.9691ZM539.741 41.8515C542.269 37.3789 543.916 33.1147 544.804 29.1289L541.876 28.4761C541.06 32.1378 539.531 36.1264 537.129 40.3753L539.741 41.8515ZM544.707 15.2211C543.328 10.2595 540.451 6.30707 536.658 3.69962L534.959 6.1717C538.153 8.36798 540.62 11.721 541.817 16.0249L544.707 15.2211ZM523.016 0.2835C518.717 0.687092 514.264 2.33963 510.049 5.38036L511.805 7.81327C515.621 5.05979 519.572 3.62007 523.297 3.27037L523.016 0.2835ZM500.609 15.3812C499.392 17.1901 498.238 19.1709 497.158 21.3292L499.842 22.6709C500.866 20.6214 501.957 18.7522 503.098 17.0551L500.609 15.3812ZM497.158 21.3292C495.806 24.0347 493.922 25.6097 491.645 26.489L492.726 29.2876C495.703 28.138 498.156 26.0417 499.842 22.6709L497.158 21.3292ZM474.998 26.149C469.329 25.0584 463.097 23.5708 457.353 23.2672L457.194 26.263C462.666 26.5522 468.559 27.9653 474.431 29.095L474.998 26.149ZM440.029 29.2554C438.184 31.3681 436.684 34.0945 435.572 37.5391L438.428 38.4602C439.439 35.3258 440.76 32.9791 442.289 31.2291L440.029 29.2554ZM435.572 37.5391C434.665 40.3524 434.631 43.17 435.392 45.9291L438.284 45.132C437.676 42.9272 437.703 40.707 438.428 38.4602L435.572 37.5391ZM444.942 58.6855C448.544 61.5599 453.022 64.2844 458.224 66.8212L459.539 64.1248C454.478 61.6566 450.2 59.0432 446.814 56.3407L444.942 58.6855ZM472.509 72.7014C477.095 74.3049 482.017 75.7979 487.223 77.1633L487.984 74.2615C482.847 72.9142 478.003 71.4441 473.499 69.8695L472.509 72.7014ZM502.222 80.584C507.095 81.5415 512.147 82.3943 517.345 83.1312L517.766 80.1609C512.619 79.4312 507.62 78.5872 502.8 77.6402L502.222 80.584ZM532.581 84.9132C537.59 85.3784 542.699 85.7369 547.883 85.98L548.023 82.9833C542.885 82.7423 537.822 82.387 532.858 81.926L532.581 84.9132ZM563.218 86.3539C568.289 86.3636 573.408 86.2603 578.554 86.0363L578.424 83.0391C573.324 83.2611 568.25 83.3635 563.223 83.3539L563.218 86.3539ZM593.861 85.0119C596.404 84.7812 598.949 84.5196 601.492 84.2261L601.148 81.2458C598.629 81.5365 596.109 81.7957 593.59 82.0242L593.861 85.0119ZM601.492 84.2261C604.046 83.9314 606.515 83.6037 608.904 83.2454L608.459 80.2785C606.104 80.6317 603.669 80.955 601.148 81.2458L601.492 84.2261ZM623.573 80.4649C628.792 79.251 633.575 77.8784 638.005 76.389L637.049 73.5454C632.71 75.0041 628.02 76.3506 622.894 77.5429L623.573 80.4649ZM651.908 70.9021C656.719 68.7117 661.095 66.4115 665.214 64.0966L663.744 61.4813C659.677 63.7671 655.379 66.0256 650.665 68.1717L651.908 70.9021ZM678.026 56.5784C682.307 54.0395 686.496 51.6195 690.878 49.4333L689.538 46.7489C685.055 48.9859 680.789 51.4519 676.495 53.9981L678.026 56.5784ZM704.341 43.8712C708.662 42.4744 713.326 41.3408 718.507 40.5553L718.057 37.5892C712.714 38.3993 707.892 39.5705 703.418 41.0167L704.341 43.8712ZM733.103 39.3558C737.605 39.265 742.46 39.3967 747.736 39.7846L747.956 36.7927C742.596 36.3986 737.646 36.2636 733.043 36.3564L733.103 39.3558ZM762.383 41.3839C764.75 41.7185 767.189 42.0968 769.706 42.5207L770.205 39.5624C767.663 39.1343 765.197 38.7519 762.802 38.4134L762.383 41.3839ZM769.706 42.5207C772.3 42.9576 774.841 43.4353 777.335 43.9514L777.943 41.0136C775.413 40.4901 772.835 40.0055 770.205 39.5624L769.706 42.5207ZM792.378 47.6576C797.438 49.1066 802.329 50.7124 807.107 52.4486L808.132 49.629C803.294 47.871 798.336 46.2433 793.204 44.7735L792.378 47.6576ZM821.517 58.1768C826.272 60.2175 830.967 62.3683 835.664 64.6009L836.952 61.8913C832.23 59.647 827.499 57.4795 822.701 55.42L821.517 58.1768ZM849.656 71.4294C854.233 73.7022 858.879 76.0287 863.625 78.3709L864.953 75.6807C860.209 73.3398 855.581 71.022 850.991 68.7425L849.656 71.4294ZM877.692 85.1712C882.294 87.337 887.034 89.4987 891.952 91.6352L893.148 88.8836C888.261 86.7611 883.549 84.6121 878.97 82.4568L877.692 85.1712ZM906.418 97.6096C911.127 99.4512 916.01 101.257 921.094 103.013L922.073 100.177C917.029 98.4352 912.184 96.6433 907.51 94.8156L906.418 97.6096ZM936.022 107.826C940.86 109.278 945.876 110.68 951.09 112.022L951.837 109.116C946.662 107.785 941.684 106.393 936.884 104.953L936.022 107.826ZM966.3 115.631C971.248 116.709 976.366 117.734 981.666 118.697L982.203 115.745C976.936 114.788 971.853 113.771 966.939 112.7L966.3 115.631ZM997.138 121.251C1002.16 121.999 1007.33 122.694 1012.67 123.331L1013.03 120.352C1007.72 119.718 1002.57 119.027 997.58 118.283L997.138 121.251ZM1028.23 124.977C1033.29 125.445 1038.48 125.863 1043.81 126.229L1044.02 123.236C1038.7 122.872 1033.54 122.455 1028.51 121.99L1028.23 124.977ZM1059.39 127.123C1064.45 127.359 1069.65 127.55 1074.97 127.692L1075.05 124.693C1069.75 124.551 1064.57 124.361 1059.53 124.126L1059.39 127.123ZM1090.56 127.966C1093.18 127.989 1095.82 128 1098.5 128V125C1095.83 125 1093.19 124.989 1090.58 124.966L1090.56 127.966ZM1098.59 127.997C1101.01 127.85 1103.41 127.7 1105.79 127.547L1105.6 124.553C1103.22 124.706 1100.83 124.856 1098.41 125.003L1098.59 127.997ZM1120.1 126.563C1124.98 126.206 1129.76 125.834 1134.45 125.446L1134.2 122.456C1129.52 122.843 1124.75 123.215 1119.88 123.571L1120.1 126.563ZM1148.73 124.19C1153.62 123.734 1158.39 123.26 1163.06 122.768L1162.75 119.785C1158.09 120.276 1153.33 120.748 1148.45 121.203L1148.73 124.19ZM1177.33 121.169C1182.2 120.589 1186.95 119.987 1191.59 119.363L1191.19 116.39C1186.57 117.012 1181.83 117.612 1176.97 118.19L1177.33 121.169ZM1205.83 117.323C1210.7 116.581 1215.43 115.812 1220.03 115.017L1219.52 112.061C1214.94 112.853 1210.23 113.618 1205.38 114.357L1205.83 117.323ZM1234.18 112.407C1239.02 111.453 1243.71 110.466 1248.26 109.445L1247.6 106.518C1243.08 107.532 1238.42 108.514 1233.6 109.463L1234.18 112.407ZM1262.24 106.08C1267.05 104.843 1271.67 103.563 1276.14 102.241L1275.28 99.3643C1270.86 100.676 1266.27 101.946 1261.5 103.174L1262.24 106.08ZM1289.86 97.866C1294.56 96.257 1299.07 94.5925 1303.4 92.8725L1302.29 90.0842C1298.01 91.7859 1293.55 93.4338 1288.89 95.0278L1289.86 97.866ZM1316.67 87.1926C1318.88 86.1718 1321.05 85.134 1323.17 84.0792L1321.83 81.3927C1319.74 82.4345 1317.6 83.4598 1315.41 84.4684L1316.67 87.1926ZM1323.17 84.0792C1325.48 82.9274 1327.78 81.7995 1330.06 80.695L1328.75 77.9954C1326.46 79.1043 1324.16 80.2366 1321.83 81.3927L1323.17 84.0792ZM1343.93 74.1528C1348.67 71.9757 1353.34 69.9029 1357.92 67.9298L1356.73 65.1744C1352.13 67.157 1347.44 69.2393 1342.68 71.4259L1343.93 74.1528ZM1372.05 62.0537C1376.91 60.1099 1381.67 58.2803 1386.34 56.559L1385.3 53.7439C1380.6 55.4751 1375.82 57.3147 1370.94 59.2688L1372.05 62.0537ZM1400.78 51.4862C1405.75 49.8299 1410.61 48.2973 1415.38 46.8802L1414.53 44.0044C1409.72 45.4311 1404.83 46.9738 1399.83 48.6405L1400.78 51.4862ZM1430.12 42.7876C1435.18 41.4834 1440.13 40.3087 1444.99 39.2525L1444.35 36.3209C1439.45 37.3854 1434.46 38.5689 1429.37 39.8827L1430.12 42.7876ZM1460.01 36.3035C1465.13 35.4044 1470.16 34.6338 1475.11 33.9771L1474.71 31.0033C1469.73 31.6653 1464.66 32.4422 1459.49 33.3485L1460.01 36.3035ZM1490.31 32.278C1495.47 31.8079 1500.55 31.4531 1505.56 31.1955L1505.41 28.1994C1500.36 28.459 1495.24 28.8165 1490.03 29.2904L1490.31 32.278ZM1520.85 30.6882C1523.42 30.6478 1525.96 30.6289 1528.5 30.6289V27.6289C1525.95 27.6289 1523.38 27.6479 1520.81 27.6885L1520.85 30.6882ZM1528.5 30.6289C1530.81 30.6289 1533.16 30.6881 1535.54 30.8037L1535.69 27.8072C1533.26 27.6894 1530.86 27.6289 1528.5 27.6289V30.6289ZM1549.59 32.0643C1554.15 32.6467 1558.81 33.3966 1563.55 34.2964L1564.11 31.349C1559.32 30.4391 1554.6 29.6792 1549.97 29.0884L1549.59 32.0643ZM1577.41 37.288C1581.94 38.3765 1586.52 39.5792 1591.13 40.8816L1591.94 37.9944C1587.3 36.6823 1582.68 35.4695 1578.11 34.3711L1577.41 37.288ZM1604.72 44.9643C1609.2 46.3882 1613.69 47.8906 1618.2 49.4584L1619.18 46.6254C1614.66 45.0492 1610.13 43.538 1605.63 42.1052L1604.72 44.9643ZM1631.55 54.2915C1635.98 55.9537 1640.41 57.667 1644.8 59.4187L1645.91 56.6315C1641.5 54.8729 1637.06 53.1523 1632.6 51.4825L1631.55 54.2915ZM1657.97 64.7986C1662.37 66.6416 1666.73 68.511 1671.03 70.3939L1672.24 67.6449C1667.91 65.7564 1663.54 63.8809 1659.12 62.0315L1657.97 64.7986ZM1684.03 76.1796C1688.42 78.1684 1692.73 80.1571 1696.96 82.1304L1698.23 79.4124C1693.99 77.4346 1689.67 75.4411 1685.27 73.447L1684.03 76.1796ZM1709.8 88.2096C1714.21 90.3199 1718.48 92.3927 1722.61 94.4081L1723.93 91.7125C1719.8 89.6943 1715.51 87.6181 1711.1 85.5039L1709.8 88.2096ZM1735.39 100.694C1739.9 102.923 1744.15 105.037 1748.13 107.008L1749.46 104.319C1745.49 102.352 1741.23 100.234 1736.72 98.0049L1735.39 100.694Z" fill="#CC5D39"/>
</svg>

