<svg width="42" height="42" viewBox="0 0 42 42" fill="none" xmlns="http://www.w3.org/2000/svg">
<path d="M23.8692 14.7973C23.8692 16.2694 22.6744 17.4642 21.2023 17.4642V20.6646C22.7584 20.6646 24.2507 20.0464 25.3511 18.9461C26.4514 17.8457 27.0696 16.3534 27.0696 14.7973H23.8692ZM21.2023 17.4642C19.7301 17.4642 18.5353 16.2694 18.5353 14.7973H15.3349C15.3349 16.3534 15.9531 17.8457 17.0534 18.9461C18.1538 20.0464 19.6461 20.6646 21.2023 20.6646V17.4642ZM18.5353 14.7973C18.5353 13.3251 19.7301 12.1303 21.2023 12.1303V8.92993C19.6461 8.92993 18.1538 9.54809 17.0534 10.6484C15.9531 11.7488 15.3349 13.2411 15.3349 14.7973H18.5353ZM21.2023 12.1303C22.6744 12.1303 23.8692 13.3251 23.8692 14.7973H27.0696C27.0696 13.2411 26.4514 11.7488 25.3511 10.6484C24.2507 9.54809 22.7584 8.92993 21.2023 8.92993V12.1303ZM14.8015 29.1989H27.603V25.9985H14.8015V29.1989ZM14.8015 25.9985C12.6189 25.9979 10.4945 26.702 8.7442 28.0059C6.99393 29.3099 5.7114 31.1441 5.0874 33.2356L8.15548 34.1487C8.58272 32.7181 9.46032 31.4636 10.6577 30.5718C11.8552 29.6799 13.3085 29.1984 14.8015 29.1989V25.9985ZM27.603 29.1989C30.7393 29.1989 33.3956 31.2855 34.249 34.1487L37.3171 33.2356C36.6931 31.1441 35.4106 29.3099 33.6603 28.0059C31.91 26.702 29.7856 25.9979 27.603 25.9985V29.1989Z" fill="#343434"/>
<path d="M40.4043 21.1977C40.4103 25.0098 39.2765 28.7368 37.1484 31.8997C35.3934 34.5176 33.0203 36.6627 30.239 38.1453C27.4577 39.6278 24.3539 40.4022 21.2021 40.3998C18.0504 40.4022 14.9466 39.6278 12.1653 38.1453C9.38397 36.6627 7.01086 34.5176 5.25583 31.8997C3.58467 29.4085 2.52038 26.5605 2.1483 23.584C1.77621 20.6074 2.10667 17.585 3.11319 14.7592C4.1197 11.9333 5.77428 9.38259 7.94427 7.31146C10.1143 5.24032 12.7393 3.70639 15.609 2.83263C18.4787 1.95887 21.5131 1.76959 24.4692 2.27996C27.4252 2.79034 30.2205 3.98616 32.631 5.77158C35.0416 7.557 37.0003 9.88234 38.3502 12.5612C39.7001 15.2401 40.4036 18.1979 40.4043 21.1977Z" stroke="#CC5D39" stroke-width="3"/>
</svg>
