<svg width="18" height="227" viewBox="0 0 18 227" fill="none" xmlns="http://www.w3.org/2000/svg">
<path d="M13.482 0C12.9297 0 12.482 0.447715 12.482 1C12.482 1.55228 12.9297 2 13.482 2C14.0343 2 14.482 1.55228 14.482 1C14.482 0.447715 14.0343 0 13.482 0ZM11.9549 16.9977L12.1365 17.0443L11.9549 16.9977ZM9.91879 67.5538L10.0494 67.4193L9.91879 67.5538ZM14.3958 63.9847L14.4798 63.817L14.3958 63.9847ZM12.3449 56.0875L12.2872 56.2659L12.3449 56.0875ZM6.61011 77.1877L6.79638 77.1663L6.61011 77.1877ZM11.9549 98.842L11.77 98.8109L11.9549 98.842ZM1 141.03H0.812157L0.812841 141.041L1 141.03ZM13.482 196.246H13.2945H13.482ZM2.47425 227L4.25689 225.771L2.30149 224.842L2.47425 227ZM6.61011 169.794L6.44215 169.877L6.61011 169.794ZM13.2956 1.02013C13.3253 1.29491 13.3523 1.62809 13.3737 2.01408L13.7482 1.99324C13.7264 1.60208 13.6989 1.26229 13.6684 0.97987L13.2956 1.02013ZM13.4236 4.01989C13.4228 4.63331 13.4089 5.3061 13.3775 6.02908L13.7521 6.04534C13.7837 5.31711 13.7978 4.63907 13.7986 4.02038L13.4236 4.01989ZM13.252 8.03536C13.1999 8.67732 13.1341 9.34611 13.0524 10.0371L13.4248 10.0811C13.507 9.38544 13.5733 8.7121 13.6258 8.06575L13.252 8.03536ZM12.7803 12.0284C12.6797 12.6756 12.565 13.3368 12.4346 14.0088L12.8027 14.0803C12.9341 13.4035 13.0496 12.7376 13.1508 12.086L12.7803 12.0284ZM12.0133 15.9743C11.9372 16.2984 11.8572 16.624 11.7733 16.9511L12.1365 17.0443C12.2211 16.7147 12.3016 16.3866 12.3784 16.0601L12.0133 15.9743ZM11.7733 16.9511C11.7006 17.2342 11.6257 17.5194 11.5488 17.8065L11.911 17.9036C11.9883 17.6152 12.0635 17.3287 12.1365 17.0443L11.7733 16.9511ZM11.0752 19.5119C10.9146 20.0729 10.7479 20.6396 10.5766 21.2108L10.9358 21.3185C11.1074 20.7461 11.2746 20.1779 11.4357 19.6152L11.0752 19.5119ZM10.0603 22.9052C9.88684 23.4664 9.71046 24.0307 9.53241 24.5969L9.89014 24.7094C10.0683 24.1428 10.2449 23.5779 10.4185 23.0159L10.0603 22.9052ZM8.9986 26.2876C8.82037 26.8508 8.64175 27.415 8.46407 27.9788L8.82173 28.0915C8.99932 27.528 9.17786 26.9641 9.35613 26.4008L8.9986 26.2876ZM7.93392 29.6719C7.75778 30.2391 7.58385 30.805 7.41345 31.3684L7.77239 31.477C7.94247 30.9146 8.11612 30.3496 8.29205 29.7831L7.93392 29.6719ZM6.90835 33.0701C6.74164 33.6438 6.58007 34.2138 6.42506 34.7787L6.78669 34.878C6.94114 34.3151 7.1022 33.7469 7.26845 33.1747L6.90835 33.0701ZM5.97124 36.4965C5.82349 37.0803 5.68466 37.6572 5.55644 38.2257L5.92225 38.3083C6.04968 37.7432 6.18773 37.1695 6.33478 36.5886L5.97124 36.4965ZM5.19315 39.9685C5.07959 40.5666 4.98063 41.1532 4.89846 41.7264L5.26967 41.7796C5.35094 41.2126 5.44894 40.6317 5.56156 40.0385L5.19315 39.9685ZM4.69669 43.4988C4.67217 43.8003 4.65353 44.0971 4.64117 44.389L5.01584 44.4049C5.02798 44.1182 5.0463 43.8262 5.07046 43.5292L4.69669 43.4988ZM4.64117 44.389C4.62902 44.6759 4.61658 44.9666 4.60424 45.2603L4.97891 45.276C4.99125 44.9824 5.00368 44.6921 5.01584 44.4049L4.64117 44.389ZM4.53595 47.0063C4.51593 47.5813 4.49878 48.1652 4.48699 48.7554L4.86192 48.7629C4.87366 48.175 4.89075 47.593 4.91072 47.0194L4.53595 47.0063ZM4.47012 50.5055C4.47119 51.0863 4.47956 51.6708 4.4975 52.2568L4.87233 52.2453C4.85451 51.6634 4.84618 51.0825 4.84512 50.5048L4.47012 50.5055ZM4.58169 54.0078C4.62072 54.5917 4.67147 55.175 4.73618 55.7554L5.10887 55.7139C5.04483 55.1395 4.99455 54.5617 4.95585 53.9828L4.58169 54.0078ZM4.97596 57.4949C5.0724 58.0757 5.18557 58.6514 5.31781 59.2196L5.68305 59.1346C5.55277 58.5748 5.44114 58.0071 5.34589 57.4335L4.97596 57.4949ZM5.77997 60.9179C5.95713 61.481 6.15678 62.0339 6.38146 62.5741L6.7277 62.4301C6.50761 61.9009 6.31174 61.3586 6.13769 60.8054L5.77997 60.9179ZM7.14031 64.1673C7.42096 64.6846 7.72978 65.1863 8.0694 65.6698L8.37626 65.4543C8.04533 64.9832 7.74405 64.4938 7.46993 63.9885L7.14031 64.1673ZM9.17293 67.0516C9.36997 67.269 9.57496 67.4813 9.78818 67.6883L10.0494 67.4193C9.84194 67.2178 9.64249 67.0112 9.45074 66.7998L9.17293 67.0516ZM9.78818 67.6883C10.0052 67.899 10.22 68.0936 10.4324 68.273L10.6743 67.9865C10.4689 67.813 10.2605 67.6242 10.0494 67.4193L9.78818 67.6883ZM11.8535 69.276C12.4269 69.6006 12.9734 69.8119 13.4841 69.9258L13.5657 69.5598C13.0956 69.4549 12.5836 69.2584 12.0383 68.9496L11.8535 69.276ZM15.2659 69.9125C15.9009 69.7351 16.4063 69.3658 16.7394 68.8793L16.43 68.6674C16.1482 69.079 15.7176 69.3969 15.165 69.5513L15.2659 69.9125ZM17.1748 67.1321C17.123 66.5815 16.9116 66.011 16.5226 65.4709L16.2183 65.6901C16.5715 66.1804 16.7564 66.6882 16.8015 67.1673L17.1748 67.1321ZM15.242 64.2599C15.0102 64.1038 14.7564 63.9555 14.4798 63.817L14.3119 64.1523C14.5748 64.284 14.8147 64.4242 15.0325 64.5709L15.242 64.2599ZM14.4798 63.817C14.1318 63.6427 13.929 63.3998 13.8158 63.1059L13.4659 63.2407C13.6127 63.622 13.8806 63.9363 14.3119 64.1523L14.4798 63.817ZM13.8593 60.966C13.9991 60.2379 14.1896 59.4385 14.2286 58.7016L13.8541 58.6818C13.8169 59.3848 13.6357 60.1418 13.491 60.8953L13.8593 60.966ZM13.4636 56.4813C13.1933 56.2444 12.8441 56.0518 12.4025 55.9091L12.2872 56.2659C12.6899 56.396 12.9915 56.5662 13.2165 56.7633L13.4636 56.4813ZM12.4025 55.9091C12.0422 55.7927 11.6814 55.7885 11.3281 55.8863L11.4282 56.2477C11.712 56.1691 11.9979 56.1724 12.2872 56.2659L12.4025 55.9091ZM9.69481 57.1132C9.32679 57.5756 8.97788 58.1505 8.65296 58.8183L8.99017 58.9823C9.30655 58.3321 9.64163 57.7822 9.98823 57.3467L9.69481 57.1132ZM7.89979 60.6522C7.6944 61.241 7.50315 61.8728 7.32824 62.5412L7.69102 62.6361C7.86366 61.9764 8.05207 61.3542 8.25387 60.7757L7.89979 60.6522ZM6.8901 64.4664C6.76744 65.0921 6.65821 65.7405 6.56382 66.4078L6.93512 66.4603C7.02862 65.7994 7.13676 65.1575 7.25809 64.5386L6.8901 64.4664ZM6.33558 68.3635C6.276 69.0065 6.23009 69.6623 6.19896 70.3278L6.57355 70.3453C6.60441 69.6855 6.64993 69.0355 6.70898 68.3981L6.33558 68.3635ZM6.15111 72.2962C6.14988 72.9471 6.16314 73.6042 6.19185 74.2648L6.5665 74.2485C6.53803 73.5937 6.52489 72.9423 6.52611 72.2969L6.15111 72.2962ZM6.32313 76.2296C6.3527 76.556 6.38623 76.8827 6.42384 77.2092L6.79638 77.1663C6.75912 76.8428 6.7259 76.5192 6.6966 76.1958L6.32313 76.2296ZM6.42384 77.2092C6.4616 77.537 6.5036 77.8539 6.54951 78.1606L6.92038 78.1051C6.87511 77.8027 6.83366 77.4899 6.79638 77.1663L6.42384 77.2092ZM6.90581 80.0436C7.06136 80.7136 7.23725 81.3276 7.4281 81.8963L7.78362 81.777C7.59658 81.2196 7.42395 80.6172 7.27109 79.9588L6.90581 80.0436ZM8.13127 83.6811C8.41203 84.2989 8.70686 84.8608 9.00362 85.3897L9.33066 85.2062C9.03754 84.6838 8.7479 84.1316 8.47267 83.526L8.13127 83.6811ZM9.96757 87.0352C10.2931 87.585 10.6035 88.1232 10.8838 88.6862L11.2195 88.519C10.9328 87.9433 10.6167 87.3955 10.2903 86.8441L9.96757 87.0352ZM11.597 90.4159C11.7761 90.971 11.9214 91.5702 12.0221 92.2357L12.3929 92.1796C12.2892 91.4939 12.1392 90.8749 11.9539 90.3008L11.597 90.4159ZM12.1758 94.1104C12.1874 94.6885 12.1705 95.3121 12.1208 95.9897L12.4948 96.0171C12.5453 95.329 12.5626 94.6937 12.5507 94.1029L12.1758 94.1104ZM11.9157 97.8704C11.8728 98.1744 11.8244 98.4877 11.77 98.8109L12.1398 98.8731C12.1947 98.5468 12.2437 98.2302 12.2871 97.9229L11.9157 97.8704ZM11.77 98.8109C11.7187 99.1162 11.6629 99.4159 11.603 99.7104L11.9705 99.7851C12.0312 99.4865 12.0878 99.1826 12.1398 98.8731L11.77 98.8109ZM11.1785 101.484C11.0138 102.081 10.8321 102.659 10.636 103.223L10.9902 103.346C11.1888 102.775 11.373 102.189 11.54 101.584L11.1785 101.484ZM9.98789 104.929C9.75576 105.494 9.51083 106.05 9.25591 106.604L9.5966 106.761C9.85321 106.203 10.1003 105.642 10.3347 105.071L9.98789 104.929ZM8.4686 108.257C8.20319 108.8 7.93129 109.346 7.65519 109.901L7.99099 110.068C8.26684 109.513 8.53939 108.966 8.80546 108.422L8.4686 108.257ZM6.84247 111.549C6.57984 112.09 6.31609 112.643 6.05355 113.213L6.3942 113.37C6.65536 112.803 6.91793 112.252 7.17974 111.713L6.84247 111.549ZM5.30873 114.894C5.0742 115.446 4.84247 116.015 4.61525 116.606L4.96525 116.741C5.1908 116.154 5.42088 115.589 5.65385 115.04L5.30873 114.894ZM3.98751 118.332C3.79377 118.898 3.60492 119.482 3.42214 120.089L3.78119 120.197C3.96258 119.595 4.15 119.015 4.34225 118.454L3.98751 118.332ZM2.92211 121.865C2.77132 122.441 2.62619 123.036 2.48755 123.651L2.85338 123.733C2.99106 123.122 3.13517 122.532 3.28487 121.96L2.92211 121.865ZM2.1125 125.452C2.00019 126.038 1.89371 126.642 1.79364 127.265L2.16389 127.324C2.26337 126.705 2.36921 126.105 2.4808 125.523L2.1125 125.452ZM1.52713 129.086C1.44864 129.679 1.37577 130.288 1.30895 130.914L1.68184 130.953C1.74832 130.331 1.82081 129.725 1.89889 129.135L1.52713 129.086ZM1.13515 132.746C1.08536 133.344 1.04089 133.956 1.00204 134.584L1.37633 134.607C1.41501 133.982 1.4593 133.372 1.50886 132.777L1.13515 132.746ZM0.906305 136.428C0.881029 137.027 0.860664 137.638 0.845453 138.264L1.22034 138.273C1.2355 137.65 1.25579 137.04 1.28097 136.444L0.906305 136.428ZM0.816166 140.095C0.81373 140.403 0.8125 140.715 0.8125 141.03H1.1875C1.1875 140.716 1.18873 140.405 1.19115 140.098L0.816166 140.095ZM0.812841 141.041C0.831661 141.353 0.850912 141.661 0.870594 141.966L1.24482 141.942C1.22517 141.637 1.20595 141.329 1.18716 141.019L0.812841 141.041ZM0.996689 143.803C1.04244 144.429 1.09016 145.044 1.13983 145.645L1.51356 145.615C1.46399 145.014 1.41636 144.401 1.37069 143.775L0.996689 143.803ZM1.3008 147.48C1.35924 148.107 1.42 148.72 1.48307 149.319L1.85602 149.28C1.7931 148.682 1.73249 148.07 1.67418 147.445L1.3008 147.48ZM1.68801 151.151C1.76239 151.777 1.83955 152.387 1.91949 152.982L2.29115 152.932C2.21148 152.339 2.13456 151.731 2.06039 151.106L1.68801 151.151ZM2.18102 154.811C2.27611 155.436 2.3746 156.043 2.47651 156.634L2.84604 156.57C2.74458 155.982 2.64648 155.377 2.55176 154.755L2.18102 154.811ZM2.8111 158.45C2.93336 159.073 3.0599 159.675 3.19071 160.258L3.55662 160.176C3.42657 159.596 3.30071 158.997 3.17907 158.378L2.8111 158.45ZM3.62205 162.054C3.78057 162.671 3.94459 163.265 4.11411 163.838L4.4737 163.731C4.30552 163.163 4.1427 162.573 3.98524 161.961L3.62205 162.054ZM4.67483 165.6C4.88108 166.204 5.09444 166.783 5.31491 167.339L5.66352 167.201C5.44534 166.65 5.23405 166.077 5.02967 165.479L4.67483 165.6ZM6.04301 169.042C6.17388 169.326 6.30692 169.605 6.44215 169.877L6.77807 169.71C6.64447 169.441 6.51299 169.166 6.38364 168.885L6.04301 169.042ZM6.44215 169.877C6.58983 170.175 6.73445 170.47 6.87607 170.762L7.21363 170.599C7.07146 170.305 6.92629 170.009 6.77807 169.71L6.44215 169.877ZM7.71491 172.544C7.99404 173.153 8.2598 173.752 8.51279 174.34L8.8573 174.192C8.60314 173.601 8.33619 173 8.05587 172.387L7.71491 172.544ZM9.26616 176.156C9.51537 176.779 9.74992 177.39 9.9706 177.991L10.3226 177.861C10.1006 177.258 9.86484 176.643 9.61435 176.016L9.26616 176.156ZM10.6209 179.846C10.8333 180.483 11.0297 181.108 11.2114 181.72L11.5709 181.614C11.3881 180.997 11.1903 180.368 10.9767 179.727L10.6209 179.846ZM11.736 183.613C11.9032 184.262 12.0538 184.898 12.1892 185.522L12.5556 185.443C12.4192 184.814 12.2675 184.174 12.0992 183.52L11.736 183.613ZM12.5672 187.451C12.6824 188.109 12.7812 188.755 12.8654 189.39L13.2371 189.341C13.1523 188.701 13.0527 188.05 12.9366 187.386L12.5672 187.451ZM13.0831 191.342C13.1434 192.005 13.1889 192.657 13.2219 193.301L13.5964 193.282C13.5631 192.633 13.5173 191.976 13.4566 191.308L13.0831 191.342ZM13.2869 195.264C13.2921 195.593 13.2945 195.92 13.2945 196.246H13.6695C13.6695 195.918 13.6671 195.589 13.6619 195.258L13.2869 195.264ZM13.2945 196.246C13.2945 196.542 13.2869 196.844 13.2721 197.15L13.6467 197.168C13.6617 196.856 13.6695 196.549 13.6695 196.246H13.2945ZM13.1105 198.954C13.0359 199.54 12.9397 200.138 12.8244 200.747L13.1929 200.817C13.3095 200.202 13.4068 199.596 13.4825 199.001L13.1105 198.954ZM12.441 202.526C12.3015 203.108 12.1473 203.696 11.9804 204.288L12.3413 204.39C12.5094 203.793 12.6649 203.201 12.8056 202.614L12.441 202.526ZM11.457 206.033C11.2745 206.609 11.0819 207.186 10.8809 207.764L11.2351 207.887C11.4372 207.306 11.6308 206.725 11.8145 206.147L11.457 206.033ZM10.2614 209.479C10.0483 210.048 9.82868 210.616 9.60413 211.181L9.9526 211.32C10.178 210.753 10.3986 210.182 10.6126 209.61L10.2614 209.479ZM8.91444 212.871C8.67818 213.436 8.43851 213.996 8.19714 214.55L8.54085 214.7C8.78293 214.145 9.02335 213.583 9.26042 213.016L8.91444 212.871ZM7.4554 216.218C7.20043 216.782 6.94547 217.336 6.69249 217.879L7.03235 218.037C7.28589 217.493 7.54145 216.938 7.79707 216.373L7.4554 216.218ZM5.91312 219.528C5.64256 220.094 5.37681 220.643 5.11842 221.173L5.45549 221.338C5.71422 220.807 5.98039 220.257 6.25143 219.69L5.91312 219.528ZM4.31254 222.815C4.02677 223.393 3.7557 223.94 3.50308 224.451L3.83923 224.617C4.09152 224.107 4.36303 223.559 4.64879 222.981L4.31254 222.815Z" fill="#CC5D39"/>
</svg>

