<svg width="460" height="501" viewBox="0 0 460 501" fill="none" xmlns="http://www.w3.org/2000/svg">
<path d="M260.062 420.605C253.68 424.19 246.921 427.066 239.895 429.138C238.214 429.631 236.519 430.087 234.809 430.485C233.904 430.703 232.998 430.587 232.078 430.551C230.999 430.5 229.912 430.457 228.833 430.406C224.682 430.225 220.531 430.036 216.38 429.855C208.137 429.493 199.893 429.124 191.656 428.761C189.548 428.667 187.448 428.573 185.339 428.479C184.55 428.443 183.717 428.269 183 428.653C182.565 428.884 182.152 429.167 181.754 429.442C179.182 431.239 177.06 433.666 175.712 436.505C174.654 438.751 173.85 441.373 174.053 443.88C174.227 446.002 174.553 448.125 175.046 450.197C176.473 456.238 179.356 461.932 183.637 466.452C184.941 467.829 186.368 469.075 187.882 470.205C188.541 470.697 189.215 471.168 189.903 471.61C190.751 472.153 191.562 472.052 192.54 472.052C196.698 472.052 200.856 472.052 205.022 472.052C213.28 472.052 221.538 472.052 229.804 472.052C238.062 472.052 246.32 472.052 254.586 472.052C256.382 472.052 258.193 472.19 259.953 471.798C261.489 471.458 262.974 470.951 264.416 470.321C267.509 468.959 270.32 466.909 272.558 464.38C273.319 463.526 274.021 462.613 274.659 461.657C275.441 460.49 273.558 459.404 272.783 460.563C269.639 465.242 264.336 469.082 258.657 469.857C257.809 469.973 256.896 469.886 256.034 469.886C254.948 469.886 253.861 469.886 252.782 469.886C250.79 469.886 248.805 469.886 246.813 469.886C242.836 469.886 238.851 469.886 234.874 469.886C226.913 469.886 218.959 469.886 210.998 469.886C206.956 469.886 202.921 469.886 198.879 469.886C196.952 469.886 195.018 469.886 193.091 469.886C192.265 469.886 191.475 470.045 190.773 469.589C190.026 469.104 189.295 468.589 188.599 468.039C183.514 464.054 179.87 458.534 177.922 452.399C176.705 448.559 175.603 444.097 176.69 440.12C177.545 436.991 179.349 434.209 181.819 432.123C182.225 431.775 182.652 431.456 183.094 431.159C183.282 431.029 183.471 430.906 183.666 430.79C183.818 430.696 184.13 430.543 184.122 430.543C184.753 430.471 185.984 430.681 186.788 430.717C187.81 430.761 188.831 430.804 189.86 430.855C197.864 431.21 205.862 431.565 213.867 431.92C217.836 432.094 221.806 432.275 225.776 432.449C227.761 432.535 229.746 432.622 231.73 432.709C232.643 432.753 233.643 432.912 234.548 432.782C235.367 432.666 236.2 432.398 237.004 432.188C243.937 430.42 250.674 427.885 257.07 424.668C258.454 423.973 259.823 423.241 261.178 422.481C262.373 421.793 261.279 419.916 260.062 420.605Z" fill="#404040"/>
<path d="M258.179 409.63C259.352 427.037 263.945 444.119 271.768 459.722C273.797 463.772 276.042 467.705 278.476 471.523C278.759 471.965 279.208 472.11 279.701 472.023C297.086 468.93 314.472 465.837 331.851 462.736C349.237 459.643 366.622 456.55 384.001 453.449C392.694 451.899 401.387 450.378 410.079 448.806C411.695 448.516 413.347 448.4 414.969 448.132C417.113 447.77 419.229 447.284 421.315 446.683C434.441 442.902 445.887 434.441 452.928 422.662C455.594 418.207 458.013 413.107 458.839 407.942C459.839 401.669 459.781 395.265 458.586 389.028C456.202 376.611 449.176 365.492 439.36 357.596C436.832 355.56 434.115 353.568 431.218 352.09C430.167 351.554 428.82 351.387 427.668 351.134C426.161 350.801 424.647 350.525 423.119 350.294C419.562 349.758 415.969 349.482 412.369 349.504C404.9 349.547 397.431 350.808 390.368 353.235C387.029 354.379 383.805 355.835 380.56 357.204C376.547 358.9 372.533 360.595 368.52 362.29C352.228 369.172 335.929 376.061 319.637 382.943C303.28 389.853 286.93 396.764 270.573 403.675C266.618 405.349 262.67 407.015 258.715 408.688C257.432 409.231 258.534 411.1 259.809 410.564C275.796 403.806 291.791 397.054 307.779 390.295C323.766 383.537 339.761 376.785 355.749 370.026C363.775 366.636 371.802 363.246 379.828 359.856C386.174 357.175 392.389 354.488 399.163 353.075C406.675 351.503 414.498 351.243 422.105 352.329C423.611 352.547 425.111 352.807 426.596 353.126C427.704 353.358 429.008 353.532 430.051 353.93C431.16 354.358 432.254 355.198 433.239 355.835C441.939 361.457 449.06 369.512 453.225 379.016C456.166 385.732 457.535 393.106 457.361 400.43C457.304 403.009 457.057 405.588 456.615 408.13C456.231 410.347 455.413 412.484 454.565 414.563C449.379 427.276 439.114 437.476 426.393 442.634C422.141 444.358 417.678 445.568 413.144 446.234C406.798 447.161 400.307 448.349 393.932 449.487C376.873 452.522 359.813 455.557 342.753 458.6C325.693 461.635 308.634 464.67 291.574 467.713C287.423 468.452 283.272 469.191 279.121 469.929C279.527 470.096 279.94 470.263 280.345 470.429C270.921 455.666 264.553 439.07 261.728 421.778C261.069 417.758 260.62 413.701 260.345 409.637C260.258 408.239 258.084 408.232 258.179 409.63Z" fill="#404040"/>
<path d="M273.652 402.842C256.027 394.714 238.395 386.63 220.734 378.582C215.736 376.3 210.73 374.025 205.732 371.743C204.471 371.171 203.363 373.04 204.638 373.62C221.965 381.508 239.279 389.419 256.578 397.366C261.909 399.814 267.234 402.263 272.558 404.718C273.819 405.305 274.92 403.429 273.652 402.842Z" fill="#404040"/>
<path d="M143.78 447.009C154.567 450.436 165.621 452.949 176.828 454.529C177.414 454.608 177.987 454.384 178.168 453.768C178.313 453.261 177.987 452.515 177.407 452.428C166.201 450.849 155.146 448.335 144.36 444.908C143.02 444.488 142.447 446.582 143.78 447.009Z" fill="#404040"/>
<path d="M135.058 441.678C127.459 438.881 120.056 435.527 112.884 431.768C110.247 430.384 107.516 429.08 105.213 427.182C103.032 425.386 101.033 423.357 99.28 421.133C91.3912 411.115 89.515 397.568 93.2022 385.514C96.759 373.88 104.93 363.615 115.21 357.219C125.945 350.54 138.883 348.215 151.307 350.707C156.334 351.713 161.152 353.467 165.766 355.683C172.148 358.747 178.588 361.703 185.021 364.659C186.875 365.513 188.737 366.361 190.599 367.216C191.859 367.795 192.967 365.919 191.693 365.34C184.434 362.015 177.168 358.704 169.953 355.285C165.266 353.068 160.63 350.873 155.61 349.497C143.092 346.063 129.517 347.229 117.948 353.169C105.778 359.421 96.462 370.215 91.7606 383.022C87.6025 394.345 88.4356 407.544 94.5351 418.004C96.2592 420.96 98.3817 423.698 100.801 426.117C102.627 427.95 104.633 429.747 106.901 431.014C113.862 434.912 121.056 438.374 128.43 441.417C130.437 442.243 132.451 443.039 134.486 443.793C135.797 444.256 136.362 442.163 135.058 441.678Z" fill="#404040"/>
<path d="M370.404 454.579C370.331 459.759 368.31 464.808 364.695 468.531C363.254 470.016 361.609 471.277 359.798 472.277C359.501 472.443 359.197 472.602 358.893 472.755C358.777 472.813 358.639 472.907 358.516 472.936C358.357 472.972 358.436 472.878 358.509 472.878C358.27 472.885 358.024 472.878 357.785 472.878C356.039 472.878 354.293 472.878 352.547 472.878C338.638 472.878 324.73 472.878 310.814 472.878C308.887 472.878 306.96 472.878 305.033 472.878C304.077 472.878 303.07 472.95 302.114 472.82C299.339 472.436 297.101 470.56 296.326 467.858C295.942 466.517 293.841 467.09 294.232 468.437C295.007 471.132 296.913 473.312 299.52 474.363C301.65 475.218 303.881 475.058 306.12 475.058C313.588 475.058 321.057 475.058 328.518 475.058C335.922 475.058 343.333 475.058 350.736 475.058C352.605 475.058 354.467 475.058 356.336 475.058C357.183 475.058 358.176 475.196 359.009 475.036C359.385 474.964 359.755 474.754 360.103 474.58C361.914 473.675 363.602 472.501 365.108 471.154C369.802 466.959 372.483 460.86 372.57 454.587C372.591 453.181 370.418 453.181 370.404 454.579Z" fill="#404040"/>
<path d="M258.179 109.443C258.179 116.614 258.294 123.793 258.179 130.958C258.179 131.052 258.186 131.153 258.179 131.247C258.222 130.893 258.128 131.349 258.106 131.414C258.012 131.697 257.94 131.994 257.845 132.276C257.288 133.928 256.382 135.485 255.216 136.775C253.803 138.332 252.028 139.571 250.044 140.288C248.761 140.759 247.53 140.889 246.182 141.034C237.54 141.969 229.021 143.975 220.879 147.032C209.658 151.256 199.074 157.42 189.179 164.143C176.176 172.981 164.23 183.383 153.741 195.097C141.556 208.716 131.32 224.066 123.453 240.56C120.338 247.095 117.586 253.795 115.21 260.634C114.21 263.51 113.283 266.4 112.428 269.319C111.79 271.493 111.305 273.731 110.581 275.875C106.922 286.676 106.336 299.151 110.255 309.944C113.065 317.681 118.194 324.309 124.837 329.148C130.393 333.198 137.384 335.465 144.048 336.885C158.645 339.985 173.981 337.986 187.419 331.553C189.36 330.626 191.135 329.032 192.888 327.786C194.923 326.345 196.952 324.91 198.987 323.469C203.174 320.506 207.369 317.536 211.556 314.573C215.62 311.697 219.691 308.814 223.755 305.938C225.291 304.852 227.333 303.888 228.275 302.215C229.028 300.875 229.593 299.404 229.905 297.89C230.629 294.369 230.028 290.74 228.282 287.611C227.601 286.386 225.725 287.48 226.406 288.705C228.224 291.964 228.529 295.826 227.232 299.324C227 299.94 226.718 300.534 226.399 301.106C226.022 301.78 225.53 302.019 224.878 302.483C222.842 303.924 220.814 305.359 218.778 306.8C210.708 312.516 202.631 318.231 194.561 323.94C191.374 326.2 188.295 328.808 184.717 330.409C182.188 331.539 179.58 332.502 176.936 333.306C169.229 335.646 161.144 336.581 153.111 335.987C145.374 335.414 137.717 333.4 130.683 330.133C123.924 326.989 118.23 320.97 114.688 314.501C108.618 303.41 108.618 289.791 112.211 277.904C113.471 273.731 114.579 269.515 115.912 265.364C117.991 258.888 120.418 252.52 123.178 246.305C130.357 230.165 139.753 215.011 151.09 201.464C161.405 189.128 173.293 178.095 186.368 168.736C195.597 162.129 205.471 156.066 215.851 151.422C223.769 147.88 232.151 145.373 240.706 143.946C242.575 143.635 244.444 143.381 246.327 143.178C247.667 143.034 248.95 142.932 250.239 142.498C253.832 141.302 256.933 138.796 258.773 135.478C259.577 134.029 260.352 132.341 260.352 130.654C260.352 129.06 260.352 127.466 260.352 125.88C260.352 121.309 260.352 116.738 260.352 112.174C260.352 111.254 260.352 110.341 260.352 109.421C260.352 108.045 258.179 108.045 258.179 109.443Z" fill="#404040"/>
<path d="M148.677 278.143C157.993 279.389 168.461 278.954 176.915 274.369C178.161 273.695 179.334 272.869 180.515 272.087C184.362 269.508 188.114 266.798 191.859 264.075C193.33 263.003 194.8 261.93 196.256 260.829C197.51 259.88 198.966 259.221 200.53 258.997C202.109 258.772 203.754 259.033 205.217 259.649C205.724 259.859 206.217 260.127 206.688 260.416C206.883 260.54 207.079 260.67 207.275 260.8C207.332 260.837 207.39 260.895 207.448 260.924C207.651 261.025 207.332 260.829 207.477 260.945C207.383 260.59 207.289 260.243 207.195 259.888C205.232 266.052 205 272.833 206.456 279.128C208.361 287.35 213.287 294.572 220.031 299.585C222.002 301.048 224.124 302.323 226.355 303.345C227.616 303.924 228.724 302.048 227.449 301.469C222.69 299.288 218.445 296.014 215.12 291.964C209.622 285.278 207.115 276.585 207.811 268.001C208.013 265.444 208.506 262.908 209.281 260.467C209.39 260.134 209.288 259.634 208.999 259.41C204.92 256.208 199.226 255.838 195.018 259.055C190.548 262.474 185.941 265.734 181.305 268.928C179.609 270.095 177.907 271.275 176.132 272.318C174.147 273.485 171.873 274.253 169.678 274.89C162.861 276.868 155.661 276.918 148.663 275.984C148.076 275.904 147.583 276.542 147.576 277.071C147.583 277.708 148.098 278.063 148.677 278.143Z" fill="#404040"/>
<path d="M190.758 262.735C189.816 278.679 196.032 294.587 207.564 305.648C209.81 307.8 212.237 309.756 214.801 311.509C215.96 312.298 217.047 310.415 215.895 309.633C203.406 301.121 194.967 287.306 193.199 272.275C192.83 269.109 192.736 265.915 192.924 262.735C193.011 261.344 190.838 261.344 190.758 262.735Z" fill="#404040"/>
<path d="M208.789 261.105C211.252 259.323 213.635 257.439 215.917 255.433C217.097 254.397 218.249 253.332 219.372 252.238C219.807 251.818 220.01 251.463 220.473 251.282C220.966 251.086 221.458 250.891 221.958 250.709C224.617 249.746 227.37 249.029 230.159 248.587C232.527 248.21 234.932 248.152 237.301 247.761C239.518 247.392 241.698 246.798 243.806 246.008C245.19 245.494 246.545 244.907 247.863 244.248C248.913 243.726 250.188 242.951 251.159 244.088C251.492 244.48 251.644 245.03 251.572 245.544C251.463 246.341 250.536 246.827 249.949 247.29C248.703 248.297 247.45 249.297 246.204 250.304C244.907 251.347 243.618 252.39 242.321 253.426C241.199 254.331 240.192 255.136 239.8 256.599C239.134 259.127 240.901 261.394 243.531 261.242C245.306 261.134 247.182 261.039 248.884 260.525C250.695 259.982 252.507 259.431 254.318 258.888C253.868 258.634 253.426 258.381 252.977 258.127C253.868 261.648 253.492 265.444 251.833 268.689C251.166 269.986 250.283 271.051 249.428 272.21C248.58 273.362 247.696 274.47 246.733 275.52C243.893 278.643 240.561 281.287 236.874 283.329C235.099 284.315 233.245 285.162 231.339 285.85C229.804 286.401 228.101 287.111 226.457 287.038C221.437 286.828 216.417 287.191 211.469 288.038C210.092 288.277 210.679 290.371 212.048 290.132C216.75 289.328 221.531 289.016 226.305 289.204C228.079 289.277 229.746 288.697 231.412 288.118C233.462 287.408 235.468 286.539 237.388 285.517C241.307 283.424 244.893 280.671 247.928 277.426C249.037 276.238 250.072 274.977 251.036 273.673C251.876 272.536 252.782 271.485 253.47 270.232C255.6 266.371 256.158 261.8 255.078 257.533C254.933 256.976 254.296 256.606 253.738 256.773C252.152 257.251 250.572 257.729 248.986 258.207C248.225 258.439 247.494 258.685 246.697 258.758C245.82 258.837 244.936 258.917 244.06 258.997C243.263 259.069 242.227 259.185 241.901 258.236C241.416 256.802 242.77 255.824 243.719 255.056C246.262 253.013 248.805 250.963 251.347 248.92C251.92 248.457 252.767 247.978 253.18 247.363C253.521 246.856 253.695 246.153 253.738 245.552C253.825 244.335 253.347 243.074 252.427 242.27C251.507 241.466 250.275 241.155 249.08 241.365C247.696 241.604 246.385 242.56 245.11 243.125C242.85 244.125 240.474 244.885 238.047 245.392C235.831 245.856 233.592 245.957 231.354 246.225C228.507 246.566 225.696 247.174 222.965 248.044C221.799 248.42 220.64 248.84 219.51 249.311C218.771 249.616 218.278 250.239 217.713 250.789C217.119 251.361 216.518 251.934 215.909 252.491C213.302 254.889 210.556 257.128 207.687 259.199C206.572 260.04 207.651 261.923 208.789 261.105Z" fill="#404040"/>
<path d="M273.652 234.599C277.129 232.99 280.925 232.041 284.743 231.824C286.235 231.737 287.734 231.759 289.219 231.882C289.973 231.947 290.371 231.962 291.009 232.099C293.689 232.672 296.058 234.338 297.123 236.931C297.688 238.3 297.862 239.829 297.673 241.292C297.536 242.379 297.499 243.545 297.101 244.566C296.413 246.312 294.805 247.638 292.936 247.913C291.835 248.08 290.386 247.841 289.567 247.413C289.698 247.906 289.828 248.406 289.958 248.898C290.951 247.435 291.117 245.486 290.321 243.907C289.451 242.183 287.568 241.314 285.757 240.93C281.28 239.959 277.542 242.415 273.775 244.458C272.544 245.124 273.645 247 274.869 246.334C277.665 244.813 280.563 242.77 283.881 242.871C285.264 242.915 287.155 243.335 288.046 244.407C288.893 245.414 288.778 246.769 288.068 247.812C287.749 248.283 287.959 249.043 288.459 249.297C291.364 250.804 295.116 250.268 297.427 247.935C298.738 246.609 299.542 244.798 299.636 242.929C299.694 241.705 299.977 240.503 299.868 239.249C299.528 235.453 297.21 232.194 293.696 230.694C291.516 229.767 289.111 229.622 286.771 229.6C281.859 229.564 276.999 230.665 272.544 232.722C271.29 233.309 272.391 235.185 273.652 234.599Z" fill="#404040"/>
<path d="M264.025 250.695V250.702C264.206 250.391 264.387 250.079 264.561 249.76C260.801 252.035 257.099 254.411 253.47 256.889C252.318 257.671 253.405 259.554 254.564 258.765C256.483 257.454 258.425 256.171 260.381 254.918C261.366 254.288 262.351 253.665 263.344 253.049C263.865 252.731 264.387 252.405 264.908 252.086C265.459 251.745 266.191 251.448 266.191 250.688C266.198 249.297 264.025 249.297 264.025 250.695Z" fill="#404040"/>
<path d="M242.466 256.077C244.313 254.592 246.168 253.1 248.015 251.615C249.877 250.115 251.688 248.485 253.687 247.182C257.672 244.595 261.648 242.009 265.633 239.43C266.806 238.67 265.712 236.794 264.539 237.554C260.453 240.198 256.375 242.85 252.289 245.501C250.333 246.769 248.566 248.399 246.747 249.855C244.806 251.419 242.865 252.977 240.923 254.542C239.844 255.418 241.387 256.947 242.466 256.077Z" fill="#404040"/>
<path d="M305.997 120.005C306.25 129.089 310.713 137.528 318.065 142.867C317.935 142.374 317.805 141.875 317.674 141.382C316.66 143.62 315.313 145.728 313.885 147.721C310.966 151.806 307.351 155.472 303.179 158.275C297.731 161.933 291.371 164.02 284.801 164.186C277.919 164.36 271.088 162.477 265.169 158.992C258.193 154.878 252.68 148.677 249.189 141.382C248.587 140.122 246.711 141.223 247.312 142.476C253.687 155.783 266.871 165.418 281.744 166.302C288.72 166.714 295.739 165.099 301.824 161.665C306.692 158.913 310.915 155.081 314.356 150.691C316.341 148.155 318.217 145.417 319.55 142.476C319.811 141.896 319.681 141.367 319.159 140.991C312.451 136.123 308.402 128.27 308.17 120.005C308.126 118.607 305.953 118.607 305.997 120.005Z" fill="#404040"/>
<path d="M318.319 142.976C330.583 147.105 342.529 152.176 353.974 158.217C365.333 164.215 376.221 171.155 386.341 179.058C396.446 186.954 405.827 195.799 414.18 205.535C422.539 215.286 429.834 225.949 435.818 237.315C441.99 249.036 446.72 261.496 449.907 274.354C451.501 280.765 452.761 287.147 452.486 293.79C452.233 299.802 450.9 305.808 448.524 311.342C443.953 321.998 435.434 331.097 424.437 335.154C418.751 337.254 412.651 337.95 406.624 337.327C404.806 337.138 402.973 337.218 401.14 337.124C399.416 337.03 397.692 336.87 395.982 336.595C392.875 336.095 389.825 335.269 386.884 334.139C380.777 331.792 375.221 328.206 369.73 324.708C366.564 322.686 363.254 320.803 360.327 318.449C357.958 316.544 355.524 314.733 353.098 312.907C348.316 309.292 343.42 305.605 339.551 300.991C336.313 297.122 333.966 292.269 335.147 287.133C335.596 285.169 336.516 283.416 337.385 281.62C337.994 280.367 336.117 279.266 335.509 280.526C334.56 282.482 333.546 284.423 333.053 286.56C332.459 289.154 332.546 291.863 333.321 294.406C334.966 299.81 339.109 304.142 343.238 307.793C347.962 311.965 353.17 315.544 358.111 319.448C359.436 320.492 360.689 321.542 362.116 322.44C363.833 323.52 365.543 324.613 367.253 325.707C370.338 327.685 373.424 329.663 376.597 331.503C382.168 334.726 388.065 337.37 394.432 338.536C397.996 339.188 401.56 339.348 405.175 339.391C406.834 339.413 408.5 339.703 410.174 339.732C411.767 339.761 413.361 339.703 414.94 339.543C427.074 338.355 437.824 331.684 444.989 321.919C452.399 311.813 455.681 298.882 454.442 286.452C453.768 279.693 451.928 272.963 450.001 266.465C448.06 259.924 445.706 253.513 442.982 247.254C437.672 235.069 430.884 223.544 422.88 212.932C414.962 202.435 405.907 192.822 395.975 184.202C386.044 175.581 375.272 167.931 363.927 161.281C352.482 154.573 340.457 148.88 328.055 144.164C325.02 143.012 321.963 141.918 318.891 140.882C317.573 140.433 317 142.534 318.319 142.976Z" fill="#404040"/>
<path d="M348.86 311.509C354.59 308.155 359.632 303.7 363.667 298.433C369.158 291.269 372.526 282.692 373.62 273.753C373.997 270.696 374.091 267.61 373.903 264.538C373.816 263.147 371.642 263.14 371.729 264.538C372.642 279.606 366.535 294.485 355.097 304.388C352.822 306.358 350.359 308.104 347.759 309.625C346.556 310.343 347.65 312.219 348.86 311.509Z" fill="#404040"/>
<path d="M339.899 303.33C350.309 295.775 356.821 283.605 356.734 270.66C356.712 267.248 356.249 263.836 355.379 260.54C355.343 260.822 355.307 261.097 355.271 261.38C355.836 260.185 356.785 259.185 357.98 258.613C359.422 257.925 361.667 257.881 362.964 258.721C364.311 259.605 365.536 260.786 366.832 261.749C368.31 262.85 369.824 263.901 371.367 264.908C379.075 269.935 387.572 273.767 396.461 276.136C401.973 277.607 407.638 278.505 413.332 278.874C414.73 278.961 414.723 276.788 413.332 276.701C396.301 275.6 379.922 269.24 366.477 258.765C365.456 257.968 364.514 256.99 363.305 256.505C361.414 255.737 359.277 255.715 357.386 256.505C355.887 257.135 354.633 258.229 353.764 259.605C353.503 260.018 353.221 260.467 353.264 260.967C353.315 261.605 353.576 262.264 353.706 262.887C355.466 271.065 354.474 279.787 350.751 287.292C347.991 292.863 343.688 297.897 338.798 301.454C337.682 302.265 338.769 304.156 339.899 303.33Z" fill="#404040"/>
<path d="M351.598 288.147C347.454 285.865 343.304 283.59 339.16 281.308C334.234 278.599 329.315 275.897 324.389 273.188C324.273 273.123 324.158 273.043 324.034 272.992C323.252 272.659 322.165 272.768 321.318 272.724C320.296 272.666 319.275 272.608 318.254 272.55C314.103 272.318 309.959 272.079 305.808 271.848C306.156 272.116 306.504 272.376 306.859 272.644C306.214 270.906 306.047 269.073 306.46 267.255C306.765 265.893 304.671 265.313 304.367 266.675C303.874 268.856 303.983 271.116 304.765 273.224C304.939 273.702 305.301 273.992 305.816 274.021C309.423 274.224 313.031 274.426 316.638 274.637C318.442 274.738 320.246 274.839 322.05 274.941C322.245 274.955 322.564 275.006 322.774 274.984C322.81 274.977 323.52 275.013 322.948 274.876C322.955 274.876 322.962 274.883 322.97 274.89C323.027 274.905 323.078 274.955 323.129 274.977C324.831 275.825 326.476 276.817 328.142 277.737C334.053 280.982 339.957 284.235 345.868 287.48C347.411 288.328 348.961 289.183 350.504 290.03C351.728 290.697 352.83 288.82 351.598 288.147Z" fill="#404040"/>
<path d="M328.881 250.76C320.014 250.898 311.14 251.035 302.273 251.159C302.635 251.521 302.998 251.883 303.36 252.245C303.36 251.803 303.36 251.361 303.36 250.92C303.36 250.543 303.244 249.942 303.36 249.587C303.411 249.427 303.947 248.797 304.178 248.529C305.164 247.377 306.308 246.37 307.59 245.559C308.735 244.835 309.959 244.269 311.249 243.871C311.691 243.733 312.176 243.567 312.639 243.509C313.407 243.415 314.284 243.581 315.059 243.646C316.45 243.755 316.443 241.582 315.059 241.473C314.182 241.401 313.183 241.205 312.314 241.365C311.719 241.473 311.133 241.633 310.56 241.814C308.981 242.314 307.453 243.023 306.084 243.951C304.671 244.907 303.382 246.059 302.309 247.392C301.875 247.928 301.274 248.551 301.187 249.253C301.071 250.217 301.187 251.274 301.187 252.245C301.187 252.825 301.686 253.339 302.273 253.332C311.14 253.209 320.014 253.071 328.881 252.933C330.279 252.912 330.286 250.738 328.881 250.76Z" fill="#404040"/>
<path d="M323.404 244.385C325.012 244.552 326.621 244.726 328.221 244.921C329.011 245.016 329.793 245.117 330.583 245.218C331.271 245.305 331.67 245.537 332.285 245.87C334.806 247.24 337.269 248.725 339.667 250.318C344.644 253.629 349.287 257.417 353.561 261.59C354.561 262.568 356.104 261.032 355.097 260.054C350.649 255.715 345.803 251.782 340.616 248.348C338.11 246.689 335.523 245.139 332.872 243.719C332.206 243.364 331.67 243.183 330.909 243.089C330.127 242.987 329.337 242.886 328.555 242.792C326.838 242.582 325.121 242.393 323.397 242.212C322.021 242.067 322.028 244.24 323.404 244.385Z" fill="#404040"/>
<path d="M326.295 258.12C318.29 258.185 310.278 258.251 302.273 258.316C302.585 258.497 302.896 258.678 303.215 258.852C302.302 256.91 302.302 254.723 303.215 252.788C303.809 251.528 301.933 250.427 301.339 251.695C300.064 254.397 300.064 257.251 301.339 259.953C301.498 260.286 301.918 260.496 302.28 260.489C310.285 260.424 318.297 260.359 326.302 260.293C327.693 260.286 327.7 258.113 326.295 258.12Z" fill="#404040"/>
<path d="M323.868 264.654C317.565 264.654 311.263 264.654 304.961 264.654C304.063 264.654 303.164 264.654 302.273 264.654C302.585 264.835 302.896 265.016 303.215 265.19C302.273 263.053 302.273 260.518 303.215 258.381C303.773 257.113 301.904 256.005 301.339 257.287C300.057 260.206 300.057 263.372 301.339 266.291C301.491 266.632 301.926 266.827 302.28 266.827C308.583 266.827 314.885 266.827 321.188 266.827C322.086 266.827 322.984 266.827 323.875 266.827C325.273 266.827 325.273 264.654 323.868 264.654Z" fill="#404040"/>
<path d="M225.863 146.417C229.231 155.443 234.57 163.665 241.553 170.315C248.356 176.791 256.599 181.71 265.56 184.549C274.731 187.461 284.547 188.092 294.03 186.469C303.331 184.875 312.256 181.065 319.876 175.509C327.664 169.837 334.133 162.419 338.631 153.892C339.218 152.777 339.769 151.647 340.297 150.495C340.87 149.235 339.001 148.126 338.421 149.401C334.509 157.985 328.714 165.599 321.419 171.59C314.371 177.378 305.989 181.529 297.115 183.629C288.133 185.752 278.679 185.701 269.726 183.47C260.888 181.268 252.593 176.987 245.661 171.09C238.641 165.114 233.042 157.587 229.304 149.155C228.818 148.061 228.377 146.96 227.964 145.837C227.471 144.54 225.37 145.105 225.863 146.417Z" fill="#404040"/>
<path d="M170.496 335.827C170.496 342.086 170.496 348.352 170.496 354.611C170.496 355.488 170.496 356.364 170.496 357.248C170.496 358.646 172.67 358.646 172.67 357.248C172.67 350.989 172.67 344.723 172.67 338.464C172.67 337.588 172.67 336.711 172.67 335.827C172.67 334.429 170.496 334.429 170.496 335.827Z" fill="#404040"/>
<path d="M377.88 331.575C377.88 339.609 377.88 347.642 377.88 355.669C377.88 356.799 377.88 357.929 377.88 359.052C377.88 360.45 380.053 360.45 380.053 359.052C380.053 351.018 380.053 342.984 380.053 334.958C380.053 333.828 380.053 332.698 380.053 331.575C380.053 330.177 377.88 330.17 377.88 331.575Z" fill="#404040"/>
<path d="M301.723 261.148C295.841 259.134 290.248 256.345 285.105 252.868C282.729 251.26 280.454 249.5 278.295 247.609C276.47 246.008 274.47 244.429 273.637 242.06C272.754 239.554 272.754 236.583 274.043 234.222C274.21 233.91 274.275 233.432 274.043 233.128C272.602 231.245 270.291 230.296 267.98 231.129C267.016 231.476 266.067 232.092 265.51 232.969C264.923 233.881 264.72 235.229 264.466 236.272C263.083 241.995 263.264 247.754 264.604 253.462C264.974 255.049 265.386 256.628 265.662 258.243C265.691 258.395 265.734 258.743 265.698 258.468C265.72 258.634 265.734 258.794 265.749 258.96C265.785 259.323 265.799 259.692 265.807 260.054C265.865 262.64 265.531 265.241 265.263 267.813C264.408 275.854 263.293 283.518 262.322 291.53C261.605 297.441 260.982 303.374 260.54 309.307C260.229 313.501 260.091 317.71 259.78 321.904C258.903 333.748 257.498 345.715 254.441 357.212C253.455 360.928 252.296 364.666 250.507 368.085C249.515 369.99 248.544 371.461 247.052 372.873C244.111 375.662 240.105 377.734 235.99 377.56C231.962 377.394 228.934 374.887 227.261 371.338C225.703 368.049 225.291 364.217 225.493 360.624C225.617 358.472 225.732 356.35 225.638 354.191C225.522 351.728 225.515 349.019 224.653 346.672C223.052 342.311 219.93 338.471 215.62 336.595C212.287 335.139 208.52 334.719 205.007 335.711C194.38 338.718 185.195 345.795 179.559 355.292C178.697 356.741 177.929 358.24 177.241 359.776C176.676 361.044 178.545 362.152 179.117 360.87C183.275 351.561 190.678 344.006 200.001 339.819C202.117 338.87 204.319 338.116 206.565 337.537C208.028 337.16 209.709 337.269 211.194 337.515C215.192 338.189 218.648 340.434 220.85 343.854C222.139 345.86 222.98 347.99 223.211 350.366C223.472 353.039 223.61 355.748 223.472 358.429C223.284 362.087 223.204 365.658 224.204 369.23C225.218 372.859 227.261 376.416 230.651 378.285C232.498 379.306 234.614 379.755 236.714 379.734C239.25 379.705 241.481 378.98 243.712 377.828C246.088 376.597 248.341 374.952 250.022 372.844C251.71 370.729 252.912 368.302 253.926 365.796C255.694 361.449 256.867 356.857 257.853 352.278C259.149 346.259 260.077 340.174 260.772 334.06C261.366 328.829 261.895 323.592 262.185 318.333C262.438 313.74 262.684 309.155 263.112 304.569C263.894 296.122 265.06 287.748 266.111 279.331C266.69 274.695 267.241 270.044 267.683 265.393C267.878 263.314 268.11 261.199 267.944 259.113C267.712 256.2 266.748 253.39 266.198 250.536C265.64 247.631 265.502 244.675 265.756 241.727C265.886 240.256 266.118 238.8 266.444 237.359C266.574 236.779 266.719 236.2 266.886 235.627C267.016 235.164 267.111 234.512 267.364 234.099C268.429 232.396 271.109 232.817 272.181 234.215C272.181 233.852 272.181 233.483 272.181 233.121C270.885 235.482 270.617 238.271 271.095 240.901C271.341 242.241 271.819 243.567 272.529 244.733C273.225 245.878 274.173 246.761 275.144 247.667C279.947 252.158 285.373 255.998 291.219 259.018C294.421 260.67 297.753 262.083 301.165 263.249C302.469 263.691 303.041 261.597 301.723 261.148Z" fill="#404040"/>
<path d="M210.404 337.348C223.103 338.319 235.679 340.717 247.849 344.484C250.906 345.433 253.934 346.461 256.933 347.577C258.244 348.062 258.809 345.962 257.512 345.484C245.632 341.072 233.281 337.971 220.72 336.269C217.293 335.805 213.852 335.436 210.404 335.175C209.013 335.074 209.013 337.247 210.404 337.348Z" fill="#404040"/>
<path d="M317.167 252.325C317.949 247.978 317.145 243.487 314.805 239.735C314.842 240.017 314.878 240.292 314.914 240.575C315.378 239.039 316.805 237.721 318.5 238.047C319.137 238.17 319.717 238.525 320.181 238.974C320.253 239.046 320.543 239.416 320.427 239.242C320.601 239.503 320.753 239.793 320.905 240.068C322.774 243.48 323.462 247.479 322.825 251.318C322.73 251.905 322.977 252.484 323.585 252.658C324.107 252.81 324.824 252.477 324.925 251.897C325.411 248.985 325.309 246.008 324.505 243.161C324.15 241.908 323.665 240.691 323.085 239.532C322.723 238.815 322.347 238.054 321.767 237.482C320.043 235.765 317.37 235.287 315.276 236.641C314.204 237.337 313.407 238.373 312.965 239.575C312.705 240.292 312.871 240.705 313.233 241.328C313.53 241.843 313.806 242.371 314.045 242.915C315.255 245.668 315.617 248.804 315.081 251.76C314.82 253.122 316.913 253.701 317.167 252.325Z" fill="#404040"/>
<path d="M319.362 273.036C319.391 282.728 318.768 292.428 317.45 302.026C316.725 307.278 315.805 312.494 314.682 317.674C313.733 322.049 312.784 326.504 311.299 330.735C305.229 347.976 295.804 364.036 283.649 377.691C277.02 385.138 269.61 391.882 261.569 397.778C260.453 398.597 261.533 400.481 262.663 399.655C278.346 388.158 291.653 373.569 301.542 356.806C305.823 349.54 309.459 341.898 312.415 334.002C313.878 330.09 314.958 326.113 315.921 322.049C317.138 316.891 318.159 311.69 318.978 306.46C320.709 295.405 321.571 284.22 321.535 273.036C321.535 271.638 319.362 271.638 319.362 273.036Z" fill="#404040"/>
<path d="M311.56 273.036C311.278 287.212 309.655 301.338 306.562 315.182C303.679 328.105 300.028 340.826 293.964 352.655C291.096 358.255 287.901 363.775 284.344 368.969C280.918 373.967 276.919 378.741 271.971 382.298C266.553 386.195 260.156 388.397 253.463 388.463C252.804 388.47 252.05 388.535 251.413 388.39C250.645 388.209 249.884 387.84 249.145 387.543C247.465 386.869 245.813 386.116 244.198 385.29C240.561 383.442 237.091 381.248 233.882 378.727C231.289 376.684 228.855 374.445 226.602 372.026C224.791 370.084 222.516 368.578 220.198 367.303C213.896 363.833 206.557 362.413 199.415 363.253C193.67 363.927 188.056 365.934 182.826 368.331C176.074 371.432 169.852 375.662 164.455 380.762C156.979 387.84 151.147 396.561 147.178 406.044C146.048 408.746 145.229 411.6 144.258 414.36C143.063 417.758 141.846 421.155 140.607 424.531C137.826 432.086 134.914 439.598 131.842 447.038C130.524 450.233 129.227 453.413 127.655 456.492C125.018 461.671 122.063 466.691 118.969 471.61C115.34 477.391 111.588 483.222 105.503 486.685C98.9105 490.43 91.1159 490.85 83.7125 490.358C80.0542 490.111 76.4032 489.735 72.7884 489.126C71.4193 488.894 70.8325 490.988 72.2089 491.22C79.6196 492.466 87.4287 493.306 94.9118 492.292C101.917 491.343 108.342 488.51 113.225 483.302C115.441 480.94 117.281 478.26 119.035 475.544C121.092 472.356 123.084 469.133 124.989 465.851C127.068 462.28 129.082 458.658 130.828 454.912C133.182 449.863 135.174 444.611 137.224 439.432C140.1 432.159 142.831 424.835 145.446 417.468C147.178 412.585 148.648 407.616 150.923 402.951C153.183 398.315 155.914 393.881 159.101 389.817C167.932 378.582 180.124 370.389 193.895 366.542C200.067 364.818 206.521 364.666 212.7 366.491C216.025 367.477 219.177 368.998 222.031 370.968C224.363 372.576 226.116 374.728 228.174 376.655C233.737 381.863 240.206 386.072 247.226 389.049C248.551 389.614 250.101 390.469 251.55 390.563C253.173 390.665 254.825 390.592 256.44 390.433C259.903 390.092 263.264 389.238 266.466 387.869C277.774 383.022 285.119 372.453 291.117 362.188C294.855 355.785 298.246 349.236 300.948 342.318C303.345 336.175 305.207 329.851 306.801 323.454C309.93 310.9 312.169 298.187 313.147 285.271C313.451 281.185 313.639 277.085 313.719 272.992C313.762 271.638 311.589 271.638 311.56 273.036Z" fill="#404040"/>
<path d="M59.8795 497.631C69.4054 499.464 79.1342 500.253 88.8268 499.92C91.1883 499.84 93.5427 499.688 95.8897 499.478C98.1354 499.275 100.425 499.109 102.612 498.565C106.553 497.58 110.378 496.052 113.877 493.98C117.434 491.879 120.65 489.213 123.403 486.134C126.257 482.954 128.691 479.39 131.038 475.819C135.819 468.553 139.137 460.534 142.491 452.551C145.533 445.329 148.424 438.041 151.111 430.674C152.806 426.016 154.4 421.322 156.175 416.693C157.863 412.303 159.761 407.978 161.956 403.813C164.897 398.228 168.722 393.128 173.293 388.774C179.979 382.399 188.223 377.778 197.133 375.358C200.335 374.489 203.855 373.489 207.18 373.996C211.744 374.684 216.091 376.423 219.865 379.074C221.198 380.009 222.444 381.066 223.603 382.211C224.602 383.189 226.138 381.653 225.138 380.675C222.255 377.843 218.858 375.561 215.127 373.996C213.005 373.105 210.795 372.439 208.528 372.033C207.629 371.874 206.724 371.751 205.818 371.664C204.985 371.584 204.174 371.736 203.348 371.852C194.655 373.134 186.245 376.394 179.001 381.363C172.67 385.71 167.251 391.302 163.028 397.721C160.29 401.879 158.138 406.406 156.175 410.97C154.335 415.237 152.763 419.605 151.205 423.988C149.047 430.051 146.83 436.085 144.454 442.069C142.694 446.502 140.868 450.906 138.985 455.289C137.405 458.969 135.848 462.693 134.044 466.271C132.038 470.255 129.676 474.008 127.155 477.688C124.663 481.317 121.997 484.816 118.716 487.764C115.898 490.292 112.696 492.372 109.255 493.958C107.227 494.892 105.119 495.646 102.967 496.233C100.823 496.819 98.6642 497.051 96.462 497.261C86.5304 498.203 76.4756 498 66.5947 496.588C64.5302 496.291 62.4729 495.943 60.43 495.552C59.0899 495.276 58.5031 497.37 59.8795 497.631Z" fill="#404040"/>
<path d="M89.1962 455.463C89.1673 464.286 86.3493 472.878 81.1626 480.013C76.0772 487.011 68.7969 492.386 60.6546 495.269C52.0486 498.319 42.5662 498.667 33.7646 496.225C25.3543 493.893 17.748 489.046 12.0904 482.396C6.49071 475.804 2.99182 467.466 2.31088 458.839C1.61545 449.994 3.75245 441.105 8.42487 433.564C12.9886 426.197 19.7981 420.373 27.7013 416.852C35.9886 413.158 45.4638 412.158 54.3523 413.918C62.9655 415.628 70.9629 419.895 77.1204 426.161C83.2126 432.362 87.2983 440.352 88.6891 448.936C89.0369 451.095 89.189 453.283 89.1962 455.463C89.2035 456.861 91.3767 456.861 91.3694 455.463C91.3405 446.249 88.4139 437.164 82.9663 429.718C77.555 422.314 69.9777 416.685 61.3428 413.6C52.3601 410.383 42.3706 410.05 33.1851 412.6C24.398 415.034 16.3644 420.112 10.4749 427.081C4.5493 434.093 0.891043 442.8 0.144904 451.964C-0.615723 461.236 1.68789 470.668 6.61386 478.564C11.4022 486.25 18.5448 492.415 26.8321 496.059C35.5974 499.913 45.4203 500.977 54.8159 499.137C63.8203 497.377 72.2379 492.85 78.6706 486.308C85.0309 479.832 89.3918 471.429 90.8189 462.446C91.1883 460.135 91.3767 457.81 91.3839 455.47C91.3694 454.065 89.1962 454.065 89.1962 455.463Z" fill="#404040"/>
<path d="M0.847578 447.48C7.28755 462.837 16.0746 477.137 26.9262 489.771C29.5558 492.835 32.3086 495.798 35.17 498.652C36.1624 499.645 37.6981 498.109 36.7057 497.116C25.2673 485.685 15.6255 472.523 8.20031 458.151C6.30236 454.471 4.54205 450.718 2.94111 446.901C2.7093 446.357 2.22395 445.981 1.60096 446.14C1.09388 446.278 0.623012 446.944 0.847578 447.48Z" fill="#404040"/>
<path d="M4.20883 437.382C7.7222 446.828 12.2208 455.898 17.6683 464.38C23.6809 473.747 30.8235 482.404 38.8862 490.082C42.3561 493.386 45.9999 496.508 49.7885 499.442C50.2594 499.804 50.8679 499.891 51.3242 499.442C51.7009 499.072 51.7879 498.261 51.3242 497.906C44.1091 492.328 37.4446 486.047 31.4538 479.173C23.9779 470.589 17.5959 461.063 12.4598 450.906C10.1417 446.328 8.09165 441.62 6.30236 436.81C5.82425 435.506 3.72347 436.063 4.20883 437.382Z" fill="#404040"/>
<path d="M12.2932 425.82C14.1332 436.31 17.5741 446.517 22.4421 455.985C28.5489 467.865 36.9593 478.557 47.0575 487.308C51.0055 490.734 55.2071 493.864 59.6115 496.674C60.7922 497.428 61.8861 495.552 60.7053 494.798C51.9907 489.235 44.1309 482.382 37.4301 474.508C28.8314 464.402 22.2393 452.609 18.0885 440.004C16.502 435.18 15.2633 430.239 14.3867 425.241C14.1477 423.864 12.0541 424.451 12.2932 425.82Z" fill="#404040"/>
<path d="M20.8847 418.641C21.8409 427.87 24.0213 436.969 27.4913 445.575C32.9026 458.998 41.3636 471.074 52.3529 480.52C57.7642 485.171 63.7188 489.17 70.0501 492.451C71.2889 493.096 72.39 491.22 71.144 490.575C58.9812 484.273 48.2672 475.29 40.2046 464.192C33.033 454.333 28.0128 443.039 25.1876 431.195C24.2024 427.066 23.4853 422.872 23.0434 418.649C22.913 417.265 20.7398 417.251 20.8847 418.641Z" fill="#404040"/>
<path d="M73.0202 420.605C60.2924 430.435 50.5564 443.786 45.1958 458.955C43.9715 462.41 42.9863 465.952 42.2329 469.538C42.1025 470.176 42.5372 470.973 43.2833 470.915C56.779 469.85 70.0139 466.416 82.3144 460.758C85.212 459.426 88.0517 457.97 90.8334 456.398C92.0504 455.709 90.9565 453.833 89.7395 454.521C78.4605 460.896 66.1239 465.3 53.3526 467.495C50.0203 468.068 46.6591 468.481 43.2906 468.749C43.6383 469.205 43.986 469.669 44.341 470.125C47.5791 454.739 55.2505 440.461 66.3702 429.334C68.8114 426.892 71.4048 424.596 74.1358 422.488C74.6067 422.126 74.8457 421.561 74.527 421.003C74.2445 420.532 73.4838 420.25 73.0202 420.605Z" fill="#404040"/>
<path d="M39.2339 463.482C41.5013 449.269 46.3838 435.527 53.6713 423.111C55.4389 420.105 57.3368 417.185 59.3652 414.346C60.1765 413.208 58.293 412.122 57.4889 413.252C49.0786 425.038 42.8704 438.374 39.3063 452.406C38.4226 455.876 37.7054 459.382 37.1404 462.91C36.9158 464.279 39.0166 464.866 39.2339 463.482Z" fill="#404040"/>
<path d="M33.9819 454.579C35.1048 443.184 37.5098 431.92 41.1318 421.061C42.1098 418.127 43.1819 415.222 44.3337 412.346C44.8553 411.05 42.7545 410.485 42.2402 411.767C37.8793 422.662 34.7426 434.042 32.946 445.64C32.4824 448.61 32.113 451.587 31.816 454.579C31.6711 455.97 33.8443 455.963 33.9819 454.579Z" fill="#404040"/>
<path d="M28.5127 442.38C28.4185 432.68 30.2875 423.06 33.9892 414.085C34.518 412.795 32.4172 412.23 31.8957 413.505C28.1287 422.64 26.2453 432.492 26.3467 442.373C26.3539 443.778 28.5272 443.778 28.5127 442.38Z" fill="#404040"/>
<path d="M53.5771 445.358C64.2549 442.786 73.7953 437.07 81.0974 428.856C82.0246 427.812 80.4888 426.269 79.5616 427.32C72.4914 435.274 63.3494 440.772 53.0049 443.257C51.6357 443.59 52.2153 445.684 53.5771 445.358Z" fill="#404040"/>
<path d="M48.825 454.529C60.0461 452.718 70.8398 448.364 80.1629 441.851C82.3361 440.33 84.4296 438.7 86.4362 436.969C87.5011 436.056 85.9581 434.52 84.9005 435.433C76.5988 442.583 66.7251 447.842 56.156 450.725C53.5554 451.435 50.9113 452 48.2455 452.435C46.8691 452.652 47.4559 454.746 48.825 454.529Z" fill="#404040"/>
<path d="M45.6811 461.722C58.9595 461.881 72.1582 457.998 83.1837 450.588C85.451 449.059 87.6315 447.393 89.7033 445.604C90.7609 444.691 89.218 443.155 88.1676 444.068C78.8517 452.109 67.2322 457.375 55.0187 458.998C51.9255 459.411 48.8033 459.585 45.6811 459.549C44.283 459.534 44.283 461.707 45.6811 461.722Z" fill="#404040"/>
<path d="M48.5353 476.608C59.3941 477.731 70.4631 476.666 80.9018 473.457C83.3285 472.711 85.7191 471.849 88.0734 470.878C89.3484 470.35 88.7906 468.249 87.4939 468.785C77.6926 472.82 67.1525 474.928 56.5472 474.87C53.8669 474.855 51.1938 474.703 48.528 474.428C47.1444 474.29 47.1517 476.464 48.5353 476.608Z" fill="#404040"/>
<path d="M58.4234 485.048C66.841 485.367 75.2876 483.867 83.0677 480.636C84.3427 480.107 83.7849 478.007 82.4882 478.543C74.8675 481.701 66.6672 483.186 58.4162 482.875C57.0253 482.824 57.0253 484.997 58.4234 485.048Z" fill="#404040"/>
<path d="M240.199 63.0446C234.034 68.2241 233.121 78.2137 238.743 84.1828C239.264 84.7334 240.134 84.9145 240.807 85.2622C242.053 85.8924 243.183 86.7037 244.176 87.6889C246.074 89.5724 246.943 91.7673 247.878 94.1941C250.029 99.7648 253.137 104.915 257.092 109.399C260.287 113.021 264.017 116.173 268.081 118.78C269.545 119.715 271.044 120.657 272.652 121.316C274.579 122.105 276.564 122.736 278.592 123.214C284.344 124.561 290.357 124.634 296.138 123.409C298.477 122.917 300.766 122.207 302.976 121.294C304.874 120.512 306.598 119.143 308.242 117.933C317.623 111.044 325.23 101.851 330.134 91.2892C330.619 90.2388 331.076 89.174 331.518 88.1091C330.989 88.3264 330.453 88.5437 329.924 88.7611C332.582 89.9056 335.849 90.2171 338.284 88.3844C340.754 86.5299 341.514 82.973 341.927 80.0682C342.174 78.3658 342.224 76.6417 342.05 74.9321C341.956 73.9759 341.891 72.8748 341.572 71.9621C341.398 71.4695 341.022 71.0203 340.71 70.6074C338.667 67.8764 335.821 65.8336 332.524 64.9136C331.257 64.5586 329.982 64.45 328.678 64.3485C327.99 64.2978 327.722 64.2544 326.961 64.095C324.556 63.6024 322.216 62.6534 320.253 61.1612C317.421 59.0024 315.602 55.7281 315.124 52.2075C314.929 50.7514 314.987 49.2736 314.827 47.8176C314.588 45.6081 314.356 43.3915 314.117 41.182C313.972 39.8201 313.755 38.5597 313.045 37.3572C312.024 35.6258 310.242 34.3726 308.264 34.0104C306.533 33.6989 304.678 33.8872 302.925 33.8872C300.325 33.8872 297.724 33.8872 295.123 33.8872C295.435 34.0683 295.746 34.2494 296.065 34.4233C294.182 31.178 290.864 28.5556 287.256 27.5414C284.315 26.7156 281.135 26.9619 278.324 28.1355C276.593 28.8599 274.992 30.0551 273.695 30.9969C268.871 34.503 265.886 40.1244 265.828 46.1152C265.77 52.1495 262.88 57.8216 257.773 61.1394C255.882 62.3637 253.876 63.3054 251.688 63.8777C248.312 64.7687 244.661 64.4137 241.517 62.8925C240.264 62.284 239.163 64.1602 240.423 64.7687C251.434 70.1148 265.003 62.1608 267.523 50.5993C268.038 48.2522 267.813 45.8762 268.226 43.5291C268.827 40.1027 270.45 36.937 272.928 34.4885C274.202 33.2208 275.731 32.0762 277.173 31.1707C279.585 29.6495 282.482 28.9106 285.329 29.3452C287.85 29.7291 290.139 30.9896 291.958 32.7572C292.552 33.3295 293.131 33.9814 293.58 34.6044C293.856 34.9811 294.102 35.5461 294.471 35.8359C295.131 36.343 296.464 36.0677 297.26 36.0677C298.325 36.0677 299.39 36.0677 300.455 36.0677C302.476 36.0677 304.504 36.1039 306.526 36.0677C309.162 36.017 311.285 37.6035 311.843 40.2186C311.908 40.5228 311.864 40.3345 311.886 40.4721C311.944 40.943 311.988 41.4211 312.038 41.8992C312.147 42.9496 312.263 43.9927 312.371 45.0431C312.553 46.7455 312.85 48.4768 312.842 50.1864C312.828 53.3158 313.69 56.496 315.421 59.1183C318.109 63.1895 322.629 65.6815 327.396 66.3986C329.467 66.7101 331.474 66.7318 333.452 67.5504C334.98 68.1879 336.386 69.1369 337.559 70.3032C338.233 70.9696 339.146 71.8389 339.522 72.7372C339.827 73.4543 339.841 74.5047 339.906 75.2798C339.979 76.1419 340 77.0112 339.964 77.8805C339.913 79.1699 339.711 80.4231 339.406 81.6764C339.066 83.0745 338.74 84.5885 337.878 85.7765C336.914 87.1166 335.328 87.631 333.727 87.5513C333.14 87.5223 332.568 87.4064 332.003 87.247C331.786 87.1819 331.561 87.1166 331.344 87.037C331.279 87.0152 330.713 86.7834 331.018 86.9138C330.315 86.6096 329.714 86.8559 329.424 87.5658C325.215 97.8161 318.442 106.929 309.887 113.963C308.192 115.361 306.417 116.665 304.591 117.882C303.823 118.389 303.063 118.962 302.208 119.309C301.245 119.7 300.274 120.055 299.281 120.367C293.906 122.069 288.162 122.591 282.569 121.801C278.745 121.258 274.775 120.237 271.406 118.302C267.777 116.216 264.408 113.71 261.395 110.805C257.288 106.842 253.919 102.184 251.442 97.041C250.384 94.8533 249.725 92.5062 248.667 90.333C247.501 87.9207 245.675 85.8634 243.466 84.3639C242.568 83.7482 241.597 83.2556 240.59 82.8427C240.394 82.763 240.018 82.4949 240.257 82.7485C240.554 83.0672 240.322 82.763 240.307 82.7267C240.228 82.5819 239.967 82.3283 239.931 82.2776C238.859 80.9085 238.047 79.3075 237.584 77.6342C236.381 73.3457 237.671 68.7457 240.742 65.5656C241.061 65.2396 241.394 64.9281 241.742 64.6311C242.807 63.6821 241.264 62.1464 240.199 63.0446Z" fill="#404040"/>
<path d="M179.102 173.039C174.908 165.353 171.221 157.116 169.823 148.401C169.127 144.055 169.062 139.455 170.417 135.225C170.815 133.971 171.119 133.261 171.786 132.073C173.597 128.835 175.958 125.88 178.146 122.902C181.254 118.679 184.434 114.506 187.73 110.428C188.969 108.9 190.215 107.386 191.482 105.879C191.743 105.575 192.033 105.278 192.265 104.952C192.634 104.437 192.584 103.966 192.584 103.329C192.584 101.909 192.584 100.489 192.584 99.0621C192.584 93.2379 192.584 87.4064 192.584 81.5822C192.584 80.1623 192.584 78.7425 192.584 77.3154C192.584 76.6055 192.584 75.8956 192.584 75.1857C192.584 74.5337 192.431 73.5485 192.497 73.0269C192.569 72.4981 193.069 71.7882 193.308 71.3246C193.735 70.5133 194.213 69.7236 194.728 68.963C197.444 64.986 201.487 61.9363 206.05 60.3933C207.579 59.8717 209.093 59.5095 210.578 58.8575C212.44 58.0462 214.243 57.0827 215.96 55.9961C223.595 51.1354 229.217 43.8623 232.317 35.4013C235.505 26.7156 241.285 18.7689 248.095 12.5752C251.355 9.60513 254.94 7.01176 258.765 4.80956C259.475 4.40389 260.192 4.00547 260.924 3.62153C261.692 3.21586 262.416 3.07098 263.271 2.9261C265.162 2.60736 267.067 2.39004 268.979 2.26689C278.788 1.6439 288.712 3.61429 297.514 8.00419C298.955 8.72136 300.361 9.50372 301.737 10.3368C302.041 10.5251 302.527 10.5541 302.831 10.3368C309.307 5.68609 317.631 4.65019 325.049 7.60577C327.772 8.69238 330.004 10.4527 332.155 12.4231C335.69 15.6539 338.66 19.4643 340.935 23.6876C341.956 25.5855 342.833 27.5559 343.55 29.5843C343.832 30.3811 344.1 31.1273 344.137 31.9821C344.187 33.0614 344.282 34.1408 344.412 35.2129C344.991 39.9868 346.295 44.6157 348.316 48.9766C349.164 50.8094 350.135 52.5769 351.221 54.2793C351.656 54.953 352.105 55.6194 352.569 56.2714C352.938 56.7857 353.322 57.4884 353.865 57.8289C355.003 58.5316 356.307 59.0169 357.459 59.7123C362.399 62.6679 366.789 66.7753 369.426 71.9548C371.309 75.6493 372.121 79.8074 371.867 83.9437C371.744 85.9576 371.353 87.9425 370.759 89.8694C370.396 91.0357 369.795 91.9774 369.245 93.0568C365.521 100.265 364.681 108.776 367.108 116.535C367.629 118.208 368.303 119.853 369.092 121.417C369.592 122.403 370.085 123.569 370.961 124.271C372.751 125.706 374.424 127.299 375.96 129.002C381.436 135.087 385.066 142.758 386.152 150.886C387.13 158.174 386.058 165.722 383.247 172.502C382.936 173.256 382.595 174.002 382.233 174.734C381.617 175.987 383.494 177.088 384.109 175.827C390.883 162.093 390.021 145.33 381.465 132.559C379.683 129.9 377.619 127.423 375.315 125.206C374.518 124.438 373.693 123.706 372.845 123.011C372.034 122.345 371.635 121.598 371.135 120.628C367.209 113.079 366.876 104.032 370.172 96.1862C370.686 94.9692 371.287 93.7884 371.954 92.6511C372.744 91.311 373.12 89.7173 373.453 88.2105C374.41 83.8641 374.308 79.2858 373.004 75.0191C371.063 68.6805 366.651 63.4937 361.341 59.6616C359.682 58.4591 357.922 57.387 356.082 56.4742C355.85 56.3583 355.611 56.2424 355.372 56.1338C355.285 56.0976 355.184 56.0251 355.097 56.0106C354.764 55.9454 355.177 56.2207 355.09 56.0468C354.771 55.3731 354.134 54.7429 353.713 54.1127C353.177 53.3158 352.663 52.5045 352.178 51.6714C349.744 47.4988 348.012 42.9351 347.078 38.1975C346.643 36.0025 346.39 33.7786 346.303 31.5474C346.23 29.7364 345.231 27.7877 344.528 26.1433C342.579 21.6086 339.87 17.407 336.545 13.756C335.169 12.242 333.691 10.8294 332.119 9.52545C330.952 8.55474 329.743 7.5116 328.395 6.79443C321.303 3.02028 312.77 2.75949 305.511 6.23664C304.193 6.86687 302.932 7.6275 301.744 8.47506C302.107 8.47506 302.476 8.47506 302.838 8.47506C292.798 2.39728 281.005 -0.580026 269.291 0.093672C266.835 0.238553 264.38 0.53556 261.96 0.977448C259.888 1.35414 257.911 2.76673 256.136 3.85334C250.935 7.04798 246.175 10.9887 242.097 15.538C237.931 20.1742 234.447 25.4189 231.817 31.0693C230.955 32.9238 230.282 34.8362 229.492 36.7197C228.5 39.0957 227.254 41.3704 225.812 43.5001C222.19 48.8462 217.184 53.1854 211.425 56.0903C210.447 56.5829 209.455 57.032 208.434 57.4377C207.521 57.7999 206.528 57.9665 205.594 58.278C202.689 59.2415 199.994 60.7265 197.618 62.6607C195.423 64.4427 193.547 66.6449 192.091 69.0644C191.577 69.9192 191.113 70.8103 190.707 71.723C190.106 73.0849 190.396 74.809 190.396 76.2723C190.396 83.7337 190.396 91.1951 190.396 98.6565C190.396 100.504 190.396 102.351 190.396 104.198C190.505 103.945 190.606 103.684 190.715 103.43C186.165 108.798 181.804 114.318 177.617 119.976C175.567 122.75 173.488 125.517 171.547 128.372C170.728 129.581 169.931 130.813 169.308 132.139C166.396 138.332 166.845 145.584 168.323 152.089C170.083 159.84 173.43 167.193 177.219 174.147C177.9 175.364 179.776 174.27 179.102 173.039Z" fill="#404040"/>
<path d="M302.585 60.2122C303.65 58.2201 305.461 56.6409 307.677 56.0179C309.974 55.3659 312.538 55.815 314.516 57.0393C315.711 57.7782 316.805 55.8947 315.61 55.1631C313.125 53.6273 309.908 53.1275 307.098 53.9243C304.381 54.6922 302.034 56.6336 300.708 59.1183C300.049 60.3498 301.926 61.4509 302.585 60.2122Z" fill="#404040"/>
<path d="M278.86 59.1183C275.709 54.8298 270.573 52.4538 265.249 52.9319C264.662 52.9826 264.162 53.3955 264.162 54.0185C264.162 54.5691 264.662 55.1558 265.249 55.1051C269.769 54.6994 274.282 56.5539 276.984 60.2194C277.332 60.6903 277.926 60.9293 278.469 60.6106C278.933 60.3281 279.208 59.5892 278.86 59.1183Z" fill="#404040"/>
<path d="M260.989 66.7174C262.206 70.6509 265.77 73.621 269.957 73.6644C274.188 73.7079 277.774 70.6799 278.962 66.7174C279.367 65.3772 277.267 64.7977 276.868 66.1378C275.956 69.1876 273.217 71.5202 269.957 71.4912C266.748 71.4622 264.01 69.1514 263.083 66.1378C262.677 64.8049 260.576 65.3772 260.989 66.7174Z" fill="#404040"/>
<path d="M300.6 68.3255C302.194 72.2156 305.866 74.9249 310.14 74.9176C314.4 74.9104 318.065 72.2084 319.652 68.3255C319.876 67.775 319.405 67.1375 318.891 66.9854C318.268 66.8043 317.776 67.2027 317.551 67.746C316.334 70.7233 313.342 72.7372 310.133 72.7444C306.909 72.7517 303.91 70.7306 302.686 67.746C302.462 67.1955 301.969 66.826 301.346 66.9854C300.846 67.123 300.375 67.7822 300.6 68.3255Z" fill="#404040"/>
<path d="M290.255 68.0358C290.255 72.0055 290.255 75.9825 290.255 79.9523C290.255 80.597 290.755 80.9664 291.342 81.0389C293.153 81.2634 295.384 82.4515 295.761 84.4219C296.181 86.624 292.841 87.1674 291.342 87.0949C289.944 87.0297 289.944 89.2029 291.342 89.2681C294.247 89.4058 298.441 87.8121 297.927 84.2263C297.463 81.0461 294.261 79.2279 291.342 78.8584C291.704 79.2206 292.066 79.5828 292.429 79.945C292.429 75.9753 292.429 71.9983 292.429 68.0285C292.429 66.6377 290.255 66.6377 290.255 68.0358Z" fill="#404040"/>
<path d="M277.151 99.0766C282.258 104.466 290.639 105.93 297.079 102.083C298.448 101.264 299.723 100.243 300.803 99.0766C301.752 98.048 300.216 96.5122 299.267 97.5409C296.311 100.743 291.994 102.554 287.611 102.068C284.279 101.699 280.99 99.9749 278.687 97.5409C277.723 96.5194 276.187 98.0624 277.151 99.0766Z" fill="#404040"/>
<path d="M194.518 144.193C192.562 142.092 191.33 139.658 190.99 136.789C190.657 133.942 191.055 131.037 191.874 128.299C193.728 122.12 197.98 117.071 201.095 111.522C202.696 108.675 204.029 105.654 204.652 102.431C205.362 98.7941 205.282 95.0706 205.572 91.3834C206.123 84.3856 209.078 78.0833 213.497 72.6865C218.633 66.4131 225.276 61.6465 231.817 56.9596C232.52 56.4525 231.846 55.279 231.129 55.7861C219.879 63.8704 207.115 73.3457 204.71 87.9932C204.08 91.8253 204.239 95.7226 203.848 99.5765C203.486 103.235 202.356 106.632 200.646 109.878C197.589 115.687 193.163 120.831 191.062 127.126C189.186 132.754 188.751 140.672 193.909 144.787C194.337 145.127 194.902 144.598 194.518 144.193Z" fill="#404040"/>
<path d="M229.883 92.6946C229.123 91.6514 227.862 91.3472 226.638 91.7311C225.138 92.202 224.24 93.4914 223.958 94.9982C223.603 96.8527 223.943 98.8158 224.204 100.663C224.508 102.836 224.878 105.002 225.24 107.168C226.522 114.854 227.63 122.989 224.399 130.364C223.668 132.037 222.726 133.638 221.553 135.036C220.951 135.746 220.292 136.413 219.575 137.007C218.851 137.608 218.025 138.057 217.337 138.687C216.924 139.064 217.358 139.781 217.88 139.622C219.249 139.209 220.473 138.1 221.48 137.108C222.552 136.058 223.479 134.855 224.262 133.573C225.885 130.914 226.906 127.894 227.435 124.829C228.753 117.209 226.906 109.537 225.74 102.025C225.414 99.9024 224.827 97.5336 225.146 95.3821C225.291 94.4114 225.682 93.4697 226.587 92.9916C227.326 92.6004 228.391 92.499 228.956 93.2379C229.362 93.7884 230.296 93.2669 229.883 92.6946Z" fill="#404040"/>
<path d="M237.924 130.965C240.134 127.807 241.901 124.409 243.249 120.802C243.908 119.027 244.466 117.209 244.915 115.369C245.147 114.398 245.357 113.42 245.523 112.435C245.661 111.631 245.922 110.638 245.625 109.856C245.523 109.588 245.204 109.544 245.038 109.776C244.553 110.457 244.531 111.478 244.393 112.283C244.241 113.166 244.067 114.043 243.864 114.912C243.437 116.759 242.901 118.578 242.256 120.36C240.967 123.924 239.235 127.343 237.185 130.53C236.874 131.001 237.613 131.414 237.924 130.965Z" fill="#404040"/>
<path d="M246.168 51.8236C249.66 46.9483 253.158 42.073 256.628 37.1833C258.287 34.8507 259.837 32.366 261.743 30.229C263.532 28.2151 265.872 26.578 268.668 26.7156C269.443 26.7518 269.443 25.5493 268.668 25.5131C262.757 25.2378 259.388 31.2577 256.44 35.4157C252.702 40.7039 248.986 46.0066 245.27 51.302C244.886 51.8453 245.784 52.3596 246.168 51.8236Z" fill="#404040"/>
<path d="M241.966 35.9228C245.936 23.5717 256.679 14.2051 269.501 12.1116C271.37 11.8073 273.261 11.6624 275.159 11.6624C276.079 11.6624 276.999 11.6987 277.919 11.7784C278.882 11.858 279.853 12.0681 280.816 12.0247C281.425 11.9957 281.504 11.1988 280.954 10.9887C279.389 10.402 277.419 10.4599 275.767 10.4527C274.05 10.4382 272.333 10.5541 270.631 10.7859C267.205 11.2495 263.858 12.1768 260.685 13.5676C254.672 16.2045 249.515 20.5437 245.77 25.9333C243.698 28.9178 242.097 32.2066 241.003 35.6693C240.829 36.2633 241.778 36.5241 241.966 35.9228Z" fill="#404040"/>
<path d="M290.741 13.075C291.552 14.9513 292.646 16.6609 294.015 18.1894C294.689 18.9427 295.428 19.6454 296.21 20.2829C297 20.9276 297.825 21.5578 298.753 21.978C299.455 22.2967 299.977 21.4057 299.354 20.9493C298.586 20.3771 297.767 19.8772 297.021 19.2687C296.268 18.6602 295.565 17.9938 294.913 17.2838C293.617 15.864 292.53 14.2486 291.69 12.5172C291.378 11.8653 290.465 12.4376 290.741 13.075Z" fill="#404040"/>
<path d="M310.524 21.6303C313.531 20.2539 317.051 20.732 319.884 22.3112C322.73 23.9049 324.752 26.6287 326.041 29.5698C328.881 36.0387 327.722 43.4494 330.474 49.9329C331.677 52.758 333.792 55.9889 336.878 56.9451C337.436 57.119 337.697 56.3511 337.255 56.0469C335.936 55.1413 334.683 54.2648 333.676 53.0043C332.648 51.7221 331.872 50.2299 331.3 48.6941C329.982 45.1518 329.75 41.3341 329.272 37.6179C328.439 31.1707 326.186 23.9919 319.884 20.9131C316.776 19.3919 313.118 19.1673 309.959 20.6668C309.329 20.9856 309.887 21.92 310.524 21.6303Z" fill="#404040"/>
<path d="M345.39 61.632C347.042 63.6314 348.686 65.6307 350.338 67.6374C351.134 68.6081 351.939 69.5788 352.757 70.535C353.177 71.0276 353.59 71.5274 354.025 71.9983C354.431 72.4402 354.793 72.94 355.358 73.1646C355.626 73.2732 355.829 72.969 355.785 72.7372C355.669 72.1577 355.191 71.6868 354.843 71.2232C354.467 70.7306 354.068 70.2525 353.677 69.7671C352.859 68.7602 352.025 67.7677 351.192 66.7826C349.519 64.8049 347.853 62.82 346.18 60.8424C345.716 60.2846 344.934 61.0815 345.39 61.632Z" fill="#404040"/>
<path d="M357.727 86.8124C355.495 92.9409 353.655 99.207 352.294 105.589C351.642 108.661 350.997 111.768 350.685 114.898C350.396 117.781 350.533 120.78 351.815 123.424C352.844 125.554 355.097 128.292 357.734 128.118C358.074 128.096 358.212 127.654 357.908 127.466C356.944 126.872 355.908 126.43 355.046 125.67C354.17 124.894 353.482 123.938 352.96 122.902C351.678 120.331 351.671 117.339 351.982 114.55C352.656 108.559 354.148 102.554 355.771 96.7585C356.676 93.5059 357.705 90.2968 358.835 87.1167C359.088 86.414 357.98 86.117 357.727 86.8124Z" fill="#404040"/>
<path d="M364.297 138.6C366.376 141.223 368.078 144.156 369.303 147.271C369.897 148.778 370.382 150.321 370.759 151.893C371.128 153.443 371.208 155.124 371.744 156.624C371.845 156.906 372.36 156.993 372.418 156.624C372.649 155.023 372.207 153.313 371.831 151.755C371.418 150.039 370.875 148.351 370.201 146.706C368.897 143.526 367.151 140.578 365 137.898C364.594 137.405 363.906 138.108 364.297 138.6Z" fill="#404040"/>
<path d="M329.649 109.776C329.018 115.303 328.388 121.164 330.518 126.459C331.394 128.64 332.698 130.625 334.35 132.298C335.169 133.124 336.074 133.87 337.038 134.515C337.82 135.043 339.117 136.021 340.109 135.804C340.341 135.753 340.428 135.471 340.319 135.282C339.884 134.5 338.617 134.094 337.885 133.609C336.922 132.979 336.038 132.24 335.227 131.414C333.546 129.705 332.249 127.633 331.467 125.373C329.743 120.374 330.308 114.927 330.851 109.776C330.931 109.001 329.736 109.015 329.649 109.776Z" fill="#404040"/>
<path d="M234.73 161.97C235.671 160.492 236.468 158.949 237.49 157.522C238.496 156.102 239.627 154.769 240.836 153.516C243.27 151.009 246.066 148.894 249.145 147.235C249.79 146.887 249.218 145.902 248.573 146.25C245.393 147.981 242.488 150.205 239.981 152.828C238.743 154.124 237.613 155.522 236.591 156.993C235.592 158.442 234.577 159.992 233.962 161.644C233.781 162.115 234.476 162.361 234.73 161.97Z" fill="#404040"/>
<path d="M248.515 174.9C249.573 173.473 250.413 171.843 251.333 170.322C252.26 168.794 253.187 167.258 254.107 165.715C255.947 162.636 257.787 159.565 259.62 156.486C259.961 155.914 259.07 155.392 258.729 155.964C256.889 159.043 255.049 162.114 253.216 165.193C252.296 166.729 251.384 168.272 250.471 169.815C249.573 171.343 248.529 172.857 247.769 174.466C247.53 174.973 248.189 175.349 248.515 174.9Z" fill="#404040"/>
<path d="M268.501 161.933C265.06 168.163 263.648 175.422 264.148 182.492C264.22 183.477 265.77 183.484 265.691 182.492C265.162 175.581 266.567 168.772 269.479 162.506C269.791 161.854 268.864 161.281 268.501 161.933Z" fill="#404040"/>
<path d="M281.671 165.628C281.142 166.193 281.265 166.961 281.258 167.692C281.251 168.533 281.251 169.373 281.251 170.213C281.244 172.075 281.251 173.937 281.28 175.799C281.309 177.602 281.345 179.406 281.352 181.203C281.36 182.101 281.36 183.006 281.367 183.905C281.374 184.774 281.251 185.73 281.497 186.57C281.649 187.07 282.367 187.07 282.511 186.57C282.758 185.73 282.627 184.774 282.627 183.905C282.627 183.064 282.627 182.224 282.62 181.384C282.62 179.522 282.642 177.66 282.656 175.799C282.671 173.995 282.671 172.198 282.656 170.394C282.649 169.496 282.642 168.591 282.627 167.692C282.613 166.961 282.736 166.186 282.2 165.628C282.062 165.49 281.809 165.483 281.671 165.628Z" fill="#404040"/>
<path d="M293.885 163.744C295.384 166.975 296.797 170.126 297.492 173.647C297.833 175.371 298.028 177.124 298.064 178.884C298.079 179.718 298.064 180.543 298.014 181.376C297.97 182.13 297.651 183.101 298.064 183.767C298.217 184.013 298.55 184.057 298.76 183.854C299.318 183.318 299.223 182.412 299.274 181.681C299.339 180.746 299.361 179.812 299.347 178.877C299.31 177.059 299.129 175.233 298.803 173.444C298.159 169.902 296.978 166.135 294.87 163.172C294.435 162.564 293.573 163.078 293.885 163.744Z" fill="#404040"/>
<path d="M301.824 160.456C303.432 161.506 305.106 162.383 306.605 163.607C308.047 164.788 309.358 166.149 310.474 167.649C311.575 169.119 312.509 170.72 313.234 172.408C313.617 173.299 313.936 174.212 314.197 175.147C314.422 175.943 314.436 177.081 314.9 177.754C315.168 178.138 315.783 178.109 315.921 177.624C316.16 176.776 315.696 175.625 315.457 174.799C315.182 173.843 314.842 172.908 314.451 171.988C313.661 170.141 312.632 168.402 311.408 166.801C310.206 165.229 308.822 163.802 307.272 162.571C305.765 161.376 304.026 160.173 302.157 159.637C301.665 159.485 301.404 160.18 301.824 160.456Z" fill="#404040"/>
<path d="M313.943 149.843C317.5 151.241 320.738 153.255 323.426 155.993C324.737 157.333 325.896 158.818 326.874 160.419C327.359 161.216 327.794 162.035 328.185 162.882C328.511 163.592 328.721 164.911 329.446 165.28C329.706 165.411 330.119 165.374 330.257 165.07C330.634 164.23 329.975 163.223 329.627 162.44C329.214 161.52 328.75 160.629 328.229 159.76C327.171 158.014 325.903 156.384 324.476 154.936C321.666 152.074 318.131 149.778 314.262 148.662C313.502 148.445 313.233 149.568 313.943 149.843Z" fill="#404040"/>
<path d="M192.142 274.18C192.946 271.471 194.721 269.044 197.155 267.581C199.813 265.987 203.095 265.56 206.086 266.328C206.891 266.538 207.238 265.277 206.427 265.082C199.864 263.502 193.127 267.45 191.272 273.941C191.113 274.499 191.975 274.738 192.142 274.18Z" fill="#404040"/>
<path d="M202.993 298.897C207.079 297.021 210.397 293.623 212.172 289.487C212.251 289.291 212.316 289.038 212.172 288.849C212.164 288.828 212.15 288.806 212.143 288.784C212.085 288.531 211.751 288.393 211.534 288.538C211.411 288.618 211.302 288.61 211.186 288.726C211.078 288.835 211.034 288.98 210.976 289.125C210.868 289.371 210.759 289.61 210.643 289.856C210.397 290.356 210.129 290.849 209.832 291.327C209.245 292.283 208.571 293.167 207.818 293.993C206.304 295.652 204.486 296.999 202.457 297.977C201.827 298.274 202.37 299.179 202.993 298.897Z" fill="#404040"/>
<path d="M209.911 305.858C210.947 305.373 211.882 304.663 212.78 303.953C213.686 303.243 214.54 302.461 215.33 301.628C216.873 300.005 218.423 298.086 219.256 295.985C219.503 295.369 218.561 295.05 218.235 295.55C217.648 296.448 217.141 297.397 216.525 298.281C215.895 299.187 215.2 300.042 214.453 300.846C213.722 301.628 212.932 302.367 212.099 303.048C211.244 303.75 210.303 304.33 209.412 304.982C208.89 305.373 209.325 306.141 209.911 305.858Z" fill="#404040"/>
<path d="M196.271 286.176C197.683 284.467 199.321 282.909 201.124 281.62C202.001 280.99 202.921 280.417 203.877 279.91C204.377 279.642 204.891 279.396 205.413 279.164C205.645 279.063 205.884 278.94 206.13 278.86C206.47 278.758 206.695 278.744 206.949 278.469C207.318 278.063 207.043 277.491 206.521 277.44C206.173 277.411 206.014 277.549 205.724 277.701C205.478 277.831 205.21 277.918 204.956 278.034C204.413 278.28 203.877 278.548 203.355 278.838C202.334 279.403 201.356 280.033 200.422 280.736C198.567 282.134 196.952 283.757 195.568 285.626C195.264 286.039 195.945 286.575 196.271 286.176Z" fill="#404040"/>
<path d="M344.97 297.557C346.462 299.462 348.44 301.019 350.548 302.193C351.591 302.773 352.699 303.265 353.829 303.656C354.416 303.859 355.01 304.033 355.611 304.178C356.176 304.316 356.792 304.547 357.335 304.272C357.661 304.105 357.683 303.649 357.444 303.403C357.067 303.012 356.466 303.019 355.959 302.903C355.387 302.773 354.822 302.606 354.264 302.425C353.17 302.07 352.112 301.606 351.098 301.056C349.055 299.947 347.317 298.47 345.738 296.782C345.245 296.267 344.55 297.021 344.97 297.557Z" fill="#404040"/>
<path d="M351.562 289.588C353.424 291.631 355.937 293.044 358.589 293.775C359.907 294.138 361.276 294.34 362.645 294.355C363.978 294.369 365.514 294.304 366.745 293.761C367.325 293.507 367.035 292.5 366.419 292.558C365.181 292.667 364.007 292.986 362.754 292.993C361.465 293 360.182 292.834 358.936 292.508C356.444 291.856 354.228 290.552 352.352 288.799C351.823 288.299 351.077 289.052 351.562 289.588Z" fill="#404040"/>
<path d="M354.865 280.048C355.416 280.258 356.068 280.12 356.654 280.106C357.299 280.091 357.951 280.106 358.596 280.135C359.878 280.193 361.153 280.316 362.414 280.526C364.949 280.946 367.434 281.678 369.788 282.706C370.636 283.076 371.367 281.815 370.52 281.461C367.984 280.388 365.355 279.613 362.638 279.208C361.298 279.012 359.951 278.882 358.596 278.853C357.951 278.838 357.299 278.853 356.654 278.882C356.017 278.911 355.314 278.853 354.757 279.179C354.373 279.403 354.496 279.903 354.865 280.048Z" fill="#404040"/>
<path d="M355.727 270.232C357.263 270.095 358.77 269.79 360.313 269.703C361.754 269.616 363.203 269.624 364.645 269.754C366.13 269.884 367.6 270.138 369.042 270.507C369.737 270.689 370.44 270.884 371.121 271.123C371.867 271.384 372.541 271.804 373.33 271.898C373.895 271.964 374.25 271.101 373.808 270.739C373.214 270.254 372.504 270.102 371.78 269.87C370.99 269.616 370.208 269.37 369.404 269.175C367.941 268.812 366.448 268.573 364.949 268.443C361.943 268.175 358.444 268.204 355.597 269.319C355.155 269.486 355.155 270.283 355.727 270.232Z" fill="#404040"/>
<path d="M241.843 74.2874C242.336 74.3164 242.836 74.3526 243.328 74.3816C243.575 74.3961 243.814 74.4106 244.06 74.425C244.183 74.4323 244.306 74.4323 244.422 74.4395C244.48 74.4395 244.538 74.4468 244.589 74.4468C244.748 74.4395 244.857 74.3961 245.002 74.3309C245.393 74.1643 245.393 73.4688 245.002 73.3022C244.799 73.2153 244.639 73.1863 244.422 73.1936C244.313 73.2008 244.198 73.2008 244.089 73.208C243.835 73.2153 243.582 73.237 243.336 73.2515C242.843 73.2805 242.343 73.3167 241.85 73.3457C241.604 73.3602 241.365 73.5558 241.372 73.8238C241.38 74.0846 241.575 74.2729 241.843 74.2874Z" fill="#404040"/>
<path d="M244.371 69.7164C244.14 70.506 244.234 71.397 244.241 72.2084C244.248 72.9907 244.256 73.7803 244.263 74.5627C244.27 75.345 244.299 76.1347 244.313 76.917C244.328 77.3372 244.335 77.7646 244.35 78.1847C244.364 78.6121 244.335 79.025 244.553 79.409C244.77 79.8001 245.429 79.8364 245.639 79.409C245.987 78.7063 245.784 77.6921 245.77 76.917C245.755 76.1347 245.741 75.345 245.712 74.5627C245.683 73.7803 245.654 72.9907 245.625 72.2084C245.596 71.397 245.654 70.4915 245.386 69.7164C245.219 69.231 244.524 69.1948 244.371 69.7164Z" fill="#404040"/>
<path d="M330.742 72.3822C330.655 73.9759 330.67 75.5696 330.663 77.1633C330.663 77.9457 330.655 78.728 330.663 79.5104C330.67 79.9016 330.67 80.2927 330.677 80.6839C330.684 81.0823 330.641 81.459 330.829 81.814C330.989 82.111 331.445 82.1038 331.604 81.814C331.8 81.4518 331.757 81.0823 331.764 80.6839C331.771 80.3217 331.778 79.9595 331.778 79.6046C331.793 78.7932 331.786 77.9819 331.793 77.1705C331.793 75.5769 331.822 73.9832 331.742 72.3895C331.706 71.7375 330.779 71.7375 330.742 72.3822Z" fill="#404040"/>
<path d="M331.445 77.1705C331.851 77.185 332.264 77.2068 332.669 77.2213C333.075 77.2357 333.488 77.2068 333.894 77.1995C334.089 77.1923 334.256 77.0329 334.256 76.8373C334.256 76.6345 334.089 76.4824 333.894 76.4751C333.488 76.4606 333.075 76.4317 332.669 76.4534C332.264 76.4679 331.851 76.4896 331.445 76.5041C331.01 76.5113 331.01 77.1488 331.445 77.1705Z" fill="#404040"/>
</svg>
